<?xml version="1.0" encoding="utf-8"?>
<!-- Generator: Adobe Illustrator 22.0.0, SVG Export Plug-In . SVG Version: 6.00 Build 0)  -->
<svg version="1.1" id="Layer_1" xmlns="http://www.w3.org/2000/svg" xmlns:xlink="http://www.w3.org/1999/xlink" x="0px" y="0px"
	 viewBox="0 0 737.9 113.7" style="enable-background:new 0 0 737.9 113.7;" xml:space="preserve">
<style type="text/css">
	.st0{fill:#F7931A;}
	.st1{fill:#4D4D4D;}
	.st2{fill:#66991A;}
	.st3{fill:#FCC103;}
	.st4{fill:#FFFFFF;}
	.st5{fill:#00206B;}
	.st6{fill:#FEFEFE;}
	.st7{fill:#7884D1;}
	.st8{fill:#9DA7DF;}
	.st9{fill:#7785D1;}
	.st10{fill:#5C67C6;}
	.st11{fill:#2E302F;}
	.st12{fill:#828486;}
	.st13{fill:#020707;}
	.st14{fill:#343535;}
	.st15{fill:#BEBEBE;}
	.st16{fill:#626264;}
	.st17{fill:#474D55;}
	.st18{clip-path:url(#SVGID_2_);fill:url(#SVGID_3_);}
	.st19{fill:#9C844E;}
	.st20{fill:#808084;}
	.st21{fill:#86868A;}
	.st22{fill:#9D854E;}
	.st23{fill:#7F7F83;}
	.st24{fill:#0D0D0D;}
	.st25{fill:#0C0C0C;}
	.st26{fill:#9D854F;}
	.st27{fill:#91856A;}
	.st28{fill:#828286;}
	.st29{fill:#A89262;}
	.st30{fill:#AB9768;}
	.st31{fill:#CACACC;}
	.st32{fill:#90846A;}
	.st33{fill:#A6946A;}
	.st34{fill:#818185;}
	.st35{fill:#EDE9E0;}
	.st36{fill:#F1EEE6;}
	.st37{fill:#EFEBE3;}
	.st38{fill:#F2F0E9;}
	.st39{fill:#F0EDE5;}
	.st40{fill:#F4F2EC;}
	.st41{fill:#F2EFE8;}
	.st42{fill:#F3F0EA;}
	.st43{fill:#F1EEE7;}
	.st44{fill:#F5F3EE;}
	.st45{fill:#F6F4EF;}
	.st46{fill:#F6F4F0;}
	.st47{fill:#F7F6F2;}
	.st48{fill:#F7F5F2;}
	.st49{fill:#F1F1F1;}
	.st50{fill:#F6F6F6;}
	.st51{fill:#EEEEEE;}
	.st52{fill:#141414;}
	.st53{fill:#E0E0E0;}
	.st54{fill:#838383;}
	.st55{fill:#101010;}
	.st56{fill:#FBFBFB;}
	.st57{fill:#B8B8B8;}
	.st58{fill:#494949;}
	.st59{fill:#E3E3E3;}
	.st60{fill:#D8D8D8;}
	.st61{fill:#777777;}
	.st62{fill:#F0F0F0;}
	.st63{fill:#858585;}
	.st64{fill:#EBEBEB;}
	.st65{fill:#565656;}
	.st66{fill:#353535;}
	.st67{fill:#EAEAEA;}
	.st68{fill:#878787;}
	.st69{fill:#C3C3C3;}
	.st70{fill:#888888;}
	.st71{fill:#848484;}
	.st72{fill:#F2F2F2;}
	.st73{fill:#EFEFEF;}
	.st74{fill:#F8F8F8;}
	.st75{fill:#111111;}
	.st76{fill:#2E2E2E;}
	.st77{fill:#DCDCDC;}
	.st78{fill:#C0C0C0;}
	.st79{fill:#DEDEDE;}
	.st80{fill:#202020;}
	.st81{fill:#E5E5E5;}
	.st82{fill:#E1E1E1;}
	.st83{fill:#404040;}
	.st84{fill:#3B3B3B;}
	.st85{fill:#6C6C6C;}
	.st86{fill:#CCCCCC;}
	.st87{fill:#B9B9B9;}
	.st88{fill:#C7C7C7;}
	.st89{fill:#FAFAFA;}
	.st90{fill:#868686;}
	.st91{fill:#C1C1C1;}
	.st92{fill:#484848;}
	.st93{fill:#393939;}
	.st94{fill:#B7B7B7;}
	.st95{fill:#1A1A1A;}
	.st96{fill:#AEAEAE;}
	.st97{fill:#1B1B1B;}
	.st98{fill:#0E0E0E;}
	.st99{fill:#C2C2C2;}
	.st100{fill:#C5C5C5;}
	.st101{fill:#919191;}
	.st102{fill:#E4E4E4;}
	.st103{fill:#E7E7E7;}
	.st104{fill:#EDEDED;}
	.st105{fill:#1F1F1F;}
	.st106{fill:#ECECEC;}
	.st107{fill:#4C4C4C;}
	.st108{fill:#D0D0D0;}
	.st109{fill:#7B7B7B;}
	.st110{fill:#C9C9C9;}
</style>
<g>
	<g>
		<path class="st1" d="M155.3,37.8c4,0,7.5,0.7,10.4,2.1c2.9,1.4,5.4,3.3,7.3,5.8c1.9,2.4,3.3,5.3,4.3,8.5c0.9,3.3,1.4,6.8,1.4,10.5
			c0,5.8-1.1,11.2-3.2,16.4c-2.1,5.1-5,9.6-8.7,13.4c-3.7,3.8-8,6.8-13,9s-10.5,3.3-16.3,3.3c-0.8,0-2.1,0-4-0.1
			c-1.9,0-4-0.2-6.5-0.6c-2.4-0.3-5-0.8-7.7-1.5c-2.7-0.7-5.3-1.6-7.7-2.8l21.7-91.2l19.4-3l-7.8,32.4c1.7-0.8,3.3-1.3,5-1.8
			C151.6,38,153.4,37.8,155.3,37.8z M139,91.5c2.9,0,5.7-0.7,8.3-2.1c2.6-1.4,4.8-3.3,6.7-5.7c1.9-2.4,3.4-5.1,4.5-8.1
			c1.1-3,1.6-6.1,1.6-9.4c0-4-0.7-7.2-2-9.4c-1.3-2.3-3.8-3.4-7.4-3.4c-1.2,0-2.7,0.2-4.6,0.6c-1.9,0.4-3.6,1.3-5.1,2.6L132.7,91
			c0.5,0.1,0.9,0.2,1.3,0.3c0.4,0.1,0.8,0.1,1.2,0.2c0.4,0,0.9,0.1,1.5,0.1C137.3,91.5,138,91.5,139,91.5z"/>
		<path class="st1" d="M199.7,105.2h-18.6l15.7-66h18.7L199.7,105.2z M208.7,31.2c-2.6,0-4.9-0.8-7-2.3c-2.1-1.5-3.1-3.9-3.1-7.1
			c0-1.8,0.4-3.4,1.1-5c0.7-1.5,1.7-2.9,2.8-4c1.2-1.1,2.5-2,4.1-2.7c1.5-0.7,3.2-1,5-1c2.6,0,4.9,0.8,7,2.3
			c2.1,1.5,3.1,3.9,3.1,7.1c0,1.8-0.4,3.4-1.1,5c-0.7,1.5-1.7,2.9-2.8,4c-1.2,1.1-2.5,2-4.1,2.7C212.1,30.8,210.5,31.2,208.7,31.2z"
			/>
		<path class="st1" d="M232.1,22.8l19.4-3l-4.8,19.4h20.8l-3.8,15.3h-20.7l-5.5,23.1c-0.5,1.9-0.8,3.7-0.9,5.4
			c-0.1,1.7,0.1,3.1,0.6,4.3c0.5,1.2,1.5,2.2,2.8,2.8c1.3,0.7,3.2,1,5.5,1c2,0,4-0.2,5.8-0.6s3.8-0.9,5.7-1.6l1.4,14.3
			c-2.5,0.9-5.2,1.7-8.2,2.4c-2.9,0.7-6.4,1-10.4,1c-5.8,0-10.2-0.9-13.4-2.6c-3.2-1.7-5.4-4.1-6.8-7c-1.3-3-1.9-6.4-1.8-10.2
			c0.2-3.8,0.8-7.9,1.8-12.2L232.1,22.8z"/>
		<path class="st1" d="M265.7,78.8c0-5.7,0.9-11,2.8-16.1c1.8-5,4.5-9.4,7.9-13.2c3.4-3.8,7.6-6.7,12.5-8.9
			c4.9-2.2,10.4-3.3,16.4-3.3c3.8,0,7.1,0.4,10.1,1.1c3,0.7,5.7,1.7,8.1,2.8L317,55.9c-1.7-0.7-3.4-1.3-5.2-1.8
			c-1.8-0.5-4-0.8-6.6-0.8c-6.3,0-11.2,2.1-14.8,6.3c-3.6,4.2-5.4,10-5.4,17.3c0,4.3,0.9,7.7,2.8,10.3c1.8,2.6,5.2,4,10.2,4
			c2.4,0,4.8-0.3,7-0.8s4.3-1.1,6-1.9l1.4,14.9c-2.3,0.9-4.9,1.7-7.7,2.4c-2.8,0.7-6.2,1.1-10.2,1.1c-5.2,0-9.6-0.8-13.2-2.3
			c-3.6-1.5-6.6-3.5-8.9-6.1c-2.3-2.6-4-5.5-5.1-9C266.2,86.2,265.7,82.6,265.7,78.8z"/>
		<path class="st1" d="M346.3,107c-4.4,0-8.3-0.7-11.5-2c-3.3-1.3-6-3.2-8.1-5.6c-2.1-2.4-3.7-5.3-4.8-8.6c-1.1-3.3-1.6-7-1.6-11
			c0-5,0.8-10,2.4-15.1c1.6-5,4-9.5,7.2-13.5c3.2-4,7.1-7.3,11.7-9.8c4.6-2.6,9.9-3.8,15.8-3.8c4.3,0,8.2,0.7,11.5,2
			c3.3,1.3,6,3.2,8.2,5.6c2.1,2.4,3.7,5.3,4.8,8.6c1.1,3.3,1.6,7,1.6,11c0,5-0.8,10-2.4,15.1c-1.6,5-3.9,9.5-7,13.5
			c-3.1,4-7,7.3-11.6,9.8C357.8,105.7,352.4,107,346.3,107z M355.6,53.3c-2.8,0-5.2,0.8-7.3,2.4c-2.1,1.6-3.8,3.6-5.3,6
			c-1.4,2.4-2.5,5.1-3.2,8c-0.7,2.9-1.1,5.6-1.1,8.2c0,4.3,0.7,7.5,2,9.8c1.3,2.3,3.8,3.5,7.3,3.5c2.8,0,5.2-0.8,7.3-2.4
			c2.1-1.6,3.8-3.6,5.3-6c1.4-2.4,2.5-5.1,3.2-8c0.7-2.9,1.1-5.6,1.1-8.2c0-4.3-0.7-7.5-2-9.8C361.6,54.4,359.1,53.3,355.6,53.3z"/>
		<path class="st1" d="M404.5,105.2H386l15.7-66h18.7L404.5,105.2z M413.6,31.2c-2.6,0-4.9-0.8-7-2.3c-2.1-1.5-3.1-3.9-3.1-7.1
			c0-1.8,0.4-3.4,1.1-5c0.7-1.5,1.7-2.9,2.8-4c1.2-1.1,2.5-2,4.1-2.7c1.5-0.7,3.2-1,5-1c2.6,0,4.9,0.8,7,2.3
			c2.1,1.5,3.1,3.9,3.1,7.1c0,1.8-0.4,3.4-1.1,5c-0.7,1.5-1.7,2.9-2.8,4c-1.2,1.1-2.5,2-4.1,2.7C417,30.8,415.3,31.2,413.6,31.2z"/>
		<path class="st1" d="M434.2,42.2c1.4-0.4,3-0.9,4.7-1.4c1.7-0.5,3.6-1,5.8-1.5c2.1-0.5,4.5-0.8,7.2-1.1c2.6-0.3,5.6-0.4,9-0.4
			c9.9,0,16.6,2.8,20.3,8.5c3.7,5.7,4.3,13.5,1.9,23.3l-8.5,35.6h-18.7l8.3-34.9c0.5-2.2,0.9-4.3,1.2-6.3c0.3-2,0.3-3.8-0.1-5.4
			c-0.3-1.5-1.1-2.8-2.3-3.8c-1.2-1-3.1-1.4-5.6-1.4c-2.4,0-4.9,0.3-7.4,0.8l-12.2,51.1H419L434.2,42.2z"/>
	</g>
	<g>
		<path class="st2" d="M544,102.1c-1.7,1.1-4.2,2.1-7.7,3.1c-3.5,1-7.3,1.5-11.6,1.5c-7.6,0-13.3-2.2-17.2-6.5
			c-3.8-4.3-5.8-10.3-5.8-17.9c0-5.7,0.9-11.1,2.6-16.4c1.8-5.2,4.3-9.8,7.7-13.9c3.4-4,7.5-7.2,12.5-9.6c4.9-2.4,10.5-3.6,16.8-3.6
			c4.3,0,8.7,0.7,12.9,2.1l-3.4,7.4c-1.9-0.8-3.8-1.3-5.7-1.6c-1.9-0.3-3.7-0.4-5.5-0.4c-4.4,0-8.5,0.9-12.1,2.8
			c-3.6,1.9-6.8,4.4-9.3,7.7c-2.6,3.2-4.6,6.9-6,11.2c-1.4,4.2-2.1,8.7-2.1,13.4c0,5.5,1.3,9.9,3.8,13c2.6,3.2,6.6,4.8,12.2,4.8
			c1.8,0,3.5-0.2,5.3-0.5c1.8-0.3,3.5-0.7,5-1.2c1.5-0.5,2.8-0.9,4-1.4c1.2-0.5,2-1,2.6-1.4L544,102.1z"/>
		<path class="st2" d="M596.7,105.9c-0.5-1-0.9-2.2-1.3-3.5c-0.4-1.3-0.6-2.6-0.8-4c-2.9,2.8-6,4.9-9.2,6.3c-3.2,1.3-6.6,2-10,2
			c-2.7,0-5.2-0.5-7.7-1.4s-4.6-2.3-6.4-4.3c-1.8-1.9-3.3-4.4-4.5-7.5c-1.1-3.1-1.7-6.7-1.7-10.9c0-6.7,1.1-12.8,3.3-18.2
			c2.2-5.4,5.2-10.1,9.1-13.9c3.9-3.8,8.5-6.8,13.8-8.8c5.3-2.1,11.1-3.1,17.4-3.1c5.2,0,10.2,0.9,14.9,2.6l-9.7,39
			c-0.5,2.1-0.9,4.1-1.3,5.9c-0.3,1.8-0.5,3.6-0.5,5.3c0,2.3,0.2,4.4,0.6,6.4c0.4,2,1.2,4.2,2.3,6.6L596.7,105.9z M604,47.4
			c-1.5-0.3-2.9-0.6-4.1-0.8c-1.3-0.2-2.6-0.3-3.9-0.3c-5.2,0-9.8,1-13.8,3c-4,2-7.4,4.6-10.2,7.9c-2.8,3.3-4.9,7-6.3,11.2
			c-1.5,4.2-2.2,8.4-2.2,12.8c0,3.4,0.3,6.3,1,8.6c0.7,2.3,1.6,4.1,2.8,5.5c1.2,1.4,2.5,2.4,4.1,3c1.6,0.6,3.2,0.9,5,0.9
			c3.4,0,6.7-0.8,9.7-2.4c3-1.6,5.9-4,8.6-7c0-2.3,0.3-4.8,1-7.8c0.7-2.9,1.3-5.6,1.9-7.9L604,47.4z"/>
		<path class="st2" d="M615.3,94.9c3.1,1.7,5.8,2.8,8.2,3.4c2.3,0.6,5,0.9,7.9,0.9c2.1,0,4.1-0.2,6-0.7c1.9-0.5,3.6-1.1,5-2.1
			c1.4-0.9,2.6-2.1,3.4-3.6c0.8-1.5,1.3-3.3,1.3-5.3c0-2.2-0.6-4-1.8-5.4c-1.2-1.4-2.7-2.7-4.5-3.7c-1.8-1-3.7-2.1-5.8-3.1
			c-2.1-1-4-2.2-5.8-3.5c-1.8-1.3-3.3-3-4.5-5c-1.2-2-1.8-4.6-1.8-7.8c0-3.6,0.7-6.7,2-9.2c1.3-2.6,3.1-4.6,5.4-6.3s4.8-2.8,7.8-3.6
			c2.9-0.8,5.9-1.1,9-1.1c2.7,0,5.3,0.2,8,0.7c2.6,0.5,5.2,1.2,7.6,2.1l-3.3,7.3c-1.8-0.8-3.8-1.4-6-1.8c-2.3-0.5-4.6-0.7-7-0.7
			c-2,0-4,0.2-5.8,0.6c-1.9,0.4-3.5,1.1-5,2.1c-1.4,1-2.6,2.2-3.5,3.6c-0.9,1.5-1.3,3.2-1.3,5.3c0,2.2,0.6,4,1.8,5.4
			c1.2,1.4,2.7,2.7,4.5,3.8c1.8,1.1,3.7,2.1,5.8,3.1c2.1,1,4.1,2.1,5.8,3.5c1.8,1.3,3.2,2.9,4.5,4.8c1.2,1.9,1.8,4.3,1.8,7.2
			c0,3.7-0.7,6.9-2.1,9.5c-1.4,2.7-3.2,4.9-5.5,6.5c-2.3,1.7-4.9,2.9-7.8,3.7c-2.9,0.8-5.9,1.2-9,1.2c-3.3,0-6.5-0.4-9.8-1.1
			c-3.3-0.7-6.2-1.8-8.9-3.3L615.3,94.9z"/>
		<path class="st2" d="M672.1,105.2h-8.1l22.8-95.8l8.5-1.5L687,42.1c5.3-2.2,10.2-3.3,14.9-3.3c2.8,0,5.5,0.4,7.9,1.3
			c2.4,0.8,4.6,2.1,6.4,3.8c1.8,1.7,3.3,3.8,4.3,6.3c1,2.6,1.6,5.6,1.6,9.1c0,2.2-0.2,4.4-0.5,6.7c-0.3,2.3-0.8,4.6-1.4,7l-7.8,32.2
			h-8.1l6.9-28.9c0.7-2.8,1.3-5.6,1.9-8.4c0.6-2.8,0.9-5.6,0.9-8.2c0-2.5-0.4-4.6-1.2-6.3c-0.8-1.7-1.8-3.1-3.1-4.1
			c-1.3-1-2.8-1.8-4.6-2.3c-1.8-0.5-3.6-0.7-5.5-0.7c-2.4,0-4.9,0.3-7.3,0.8c-2.5,0.5-4.8,1.1-7,1.9L672.1,105.2z"/>
	</g>
	<g>
		<path class="st2" d="M54.9,40.8l-2.7,11c3.1,0.8,12.7,3.9,14.2-2.3C68,43.1,58,41.6,54.9,40.8z"/>
		<path class="st2" d="M50.8,57.4l-3,12.1c3.7,0.9,15.2,4.6,16.9-2.2C66.5,60.2,54.5,58.3,50.8,57.4z"/>
		<path class="st2" d="M67.3,8.1C40.4,1.4,13.2,17.8,6.5,44.7c-6.7,26.9,9.7,54.1,36.5,60.8c26.9,6.7,54.1-9.7,60.8-36.5
			C110.6,42.1,94.2,14.8,67.3,8.1z M77.3,49.7c-0.7,4.9-3.4,7.3-7,8.1c4.9,2.6,7.5,6.5,5.1,13.4c-3,8.5-10,9.2-19.4,7.4l-2.3,9.1
			l-5.5-1.4l2.2-9c-1.4-0.4-2.9-0.7-4.4-1.1l-2.3,9.1l-5.5-1.4l2.3-9.1c-1.3-0.3-2.6-0.7-3.9-1l-7.2-1.8l2.7-6.3c0,0,4.1,1.1,4,1
			c1.6,0.4,2.2-0.6,2.5-1.3l3.6-14.4c0.2,0,0.4,0.1,0.6,0.1c-0.2-0.1-0.4-0.1-0.6-0.2l2.6-10.3c0.1-1.2-0.3-2.6-2.6-3.2
			c0.1-0.1-4-1-4-1l1.5-5.9l7.6,1.9l0,0c1.1,0.3,2.3,0.6,3.5,0.8l2.3-9l5.5,1.4l-2.2,8.9c1.5,0.3,3,0.7,4.4,1l2.2-8.8l5.5,1.4
			l-2.3,9C73.2,39.4,78.3,43,77.3,49.7z"/>
	</g>
</g>
</svg>
