<?xml version="1.0" encoding="utf-8"?>
<!-- Generator: Adobe Illustrator 22.0.0, SVG Export Plug-In . SVG Version: 6.00 Build 0)  -->
<svg version="1.1" id="Layer_1" xmlns="http://www.w3.org/2000/svg" xmlns:xlink="http://www.w3.org/1999/xlink" x="0px" y="0px"
	 viewBox="0 0 506.9 113.7" style="enable-background:new 0 0 506.9 113.7;" xml:space="preserve">
<style type="text/css">
	.st0{fill:#F7931A;}
	.st1{fill:#4D4D4D;}
	.st2{fill:#66991A;}
	.st3{fill:#FCC103;}
	.st4{fill:#FFFFFF;}
	.st5{fill:#00206B;}
	.st6{fill:#FEFEFE;}
	.st7{fill:#7884D1;}
	.st8{fill:#9DA7DF;}
	.st9{fill:#7785D1;}
	.st10{fill:#5C67C6;}
	.st11{fill:#2E302F;}
	.st12{fill:#828486;}
	.st13{fill:#020707;}
	.st14{fill:#343535;}
	.st15{fill:#BEBEBE;}
	.st16{fill:#626264;}
	.st17{fill:#474D55;}
	.st18{clip-path:url(#SVGID_2_);fill:url(#SVGID_3_);}
	.st19{fill:#9C844E;}
	.st20{fill:#808084;}
	.st21{fill:#86868A;}
	.st22{fill:#9D854E;}
	.st23{fill:#7F7F83;}
	.st24{fill:#0D0D0D;}
	.st25{fill:#0C0C0C;}
	.st26{fill:#9D854F;}
	.st27{fill:#91856A;}
	.st28{fill:#828286;}
	.st29{fill:#A89262;}
	.st30{fill:#AB9768;}
	.st31{fill:#CACACC;}
	.st32{fill:#90846A;}
	.st33{fill:#A6946A;}
	.st34{fill:#818185;}
	.st35{fill:#EDE9E0;}
	.st36{fill:#F1EEE6;}
	.st37{fill:#EFEBE3;}
	.st38{fill:#F2F0E9;}
	.st39{fill:#F0EDE5;}
	.st40{fill:#F4F2EC;}
	.st41{fill:#F2EFE8;}
	.st42{fill:#F3F0EA;}
	.st43{fill:#F1EEE7;}
	.st44{fill:#F5F3EE;}
	.st45{fill:#F6F4EF;}
	.st46{fill:#F6F4F0;}
	.st47{fill:#F7F6F2;}
	.st48{fill:#F7F5F2;}
	.st49{fill:#F1F1F1;}
	.st50{fill:#F6F6F6;}
	.st51{fill:#EEEEEE;}
	.st52{fill:#141414;}
	.st53{fill:#E0E0E0;}
	.st54{fill:#838383;}
	.st55{fill:#101010;}
	.st56{fill:#FBFBFB;}
	.st57{fill:#B8B8B8;}
	.st58{fill:#494949;}
	.st59{fill:#E3E3E3;}
	.st60{fill:#D8D8D8;}
	.st61{fill:#777777;}
	.st62{fill:#F0F0F0;}
	.st63{fill:#858585;}
	.st64{fill:#EBEBEB;}
	.st65{fill:#565656;}
	.st66{fill:#353535;}
	.st67{fill:#EAEAEA;}
	.st68{fill:#878787;}
	.st69{fill:#C3C3C3;}
	.st70{fill:#888888;}
	.st71{fill:#848484;}
	.st72{fill:#F2F2F2;}
	.st73{fill:#EFEFEF;}
	.st74{fill:#F8F8F8;}
	.st75{fill:#111111;}
	.st76{fill:#2E2E2E;}
	.st77{fill:#DCDCDC;}
	.st78{fill:#C0C0C0;}
	.st79{fill:#DEDEDE;}
	.st80{fill:#202020;}
	.st81{fill:#E5E5E5;}
	.st82{fill:#E1E1E1;}
	.st83{fill:#404040;}
	.st84{fill:#3B3B3B;}
	.st85{fill:#6C6C6C;}
	.st86{fill:#CCCCCC;}
	.st87{fill:#B9B9B9;}
	.st88{fill:#C7C7C7;}
	.st89{fill:#FAFAFA;}
	.st90{fill:#868686;}
	.st91{fill:#C1C1C1;}
	.st92{fill:#484848;}
	.st93{fill:#393939;}
	.st94{fill:#B7B7B7;}
	.st95{fill:#1A1A1A;}
	.st96{fill:#AEAEAE;}
	.st97{fill:#1B1B1B;}
	.st98{fill:#0E0E0E;}
	.st99{fill:#C2C2C2;}
	.st100{fill:#C5C5C5;}
	.st101{fill:#919191;}
	.st102{fill:#E4E4E4;}
	.st103{fill:#E7E7E7;}
	.st104{fill:#EDEDED;}
	.st105{fill:#1F1F1F;}
	.st106{fill:#ECECEC;}
	.st107{fill:#4C4C4C;}
	.st108{fill:#D0D0D0;}
	.st109{fill:#7B7B7B;}
	.st110{fill:#C9C9C9;}
</style>
<g>
	<g>
		<path class="st0" d="M56.9,40.8l-2.8,11.1c3.1,0.8,12.8,4,14.3-2.3v0C70.1,43,60,41.5,56.9,40.8z"/>
		<path class="st0" d="M52.7,57.4l-3,12.2c3.8,0.9,15.3,4.7,17.1-2.2C68.6,60.2,56.5,58.4,52.7,57.4z"/>
		<path class="st0" d="M69.4,7.8C42.3,1.1,14.9,17.5,8.1,44.6c-6.8,27.1,9.7,54.5,36.8,61.2c27.1,6.7,54.5-9.7,61.2-36.8h0
			C112.9,42,96.4,14.6,69.4,7.8z M79.4,49.6c-0.7,4.9-3.5,7.3-7.1,8.1c5,2.6,7.5,6.6,5.1,13.4c-3,8.5-10.1,9.3-19.6,7.5l-2.3,9.2
			l-5.5-1.4l2.3-9.1c-1.4-0.4-2.9-0.7-4.4-1.1l-2.3,9.1L40.1,84l2.3-9.2c-1.3-0.3-2.6-0.7-4-1L31.2,72l2.8-6.3c0,0,4.1,1.1,4,1
			c1.6,0.4,2.3-0.6,2.5-1.3l3.6-14.5l0.6,0.1c-0.2-0.1-0.4-0.1-0.6-0.2l2.6-10.4c0.1-1.2-0.3-2.7-2.6-3.2c0.1-0.1-4-1-4-1l1.5-5.9
			l7.6,1.9l0,0c1.1,0.3,2.3,0.6,3.5,0.8l2.3-9.1l5.5,1.4l-2.2,8.9c1.5,0.3,3,0.7,4.4,1l2.2-8.9l5.5,1.4l-2.3,9.1
			C75.3,39.3,80.4,42.9,79.4,49.6z"/>
	</g>
	<path class="st1" d="M154.7,36.9c4.1,0,7.6,0.7,10.6,2.2c3,1.5,5.5,3.4,7.4,5.9c2,2.5,3.4,5.4,4.3,8.7c0.9,3.3,1.4,6.9,1.4,10.7
		c0,5.9-1.1,11.4-3.3,16.7c-2.2,5.2-5.1,9.8-8.9,13.7c-3.8,3.9-8.2,6.9-13.3,9.2c-5.1,2.3-10.7,3.4-16.6,3.4c-0.8,0-2.1,0-4-0.1
		s-4.1-0.2-6.6-0.6c-2.6-0.4-5.3-0.9-7.9-1.5c-2.7-0.7-5.4-1.6-7.9-2.8l22.1-93L152,6.3l-7.9,33c1.6-0.7,3.4-1.3,5.1-1.8
		C151,37.1,152.8,36.9,154.7,36.9L154.7,36.9z M138.1,91.6c3,0,5.8-0.7,8.4-2.2c2.7-1.5,5-3.4,6.9-5.8c1.9-2.5,3.5-5.3,4.5-8.3
		c1.1-3.1,1.7-6.3,1.7-9.6c0-4.1-0.7-7.3-2-9.6c-1.4-2.3-3.9-3.5-7.5-3.5c-1.2,0-2.7,0.2-4.7,0.6c-1.9,0.4-3.6,1.3-5.2,2.7l-8.4,35
		c0.5,0.1,1,0.2,1.3,0.3c0.4,0.1,0.8,0.1,1.2,0.2c0.4,0,0.9,0.1,1.5,0.1L138.1,91.6L138.1,91.6z M199,105.6h-18.9l16-67.3h19.1
		L199,105.6z M208.2,30.1c-2.6,0-5.1-0.8-7.2-2.4c-2.1-1.6-3.2-4-3.2-7.2c0-1.8,0.4-3.5,1.1-5c0.7-1.5,1.7-2.9,2.9-4.1
		c1.2-1.2,2.6-2.1,4.2-2.8c1.6-0.7,3.3-1,5.1-1c2.6,0,5,0.8,7.2,2.4c2.1,1.6,3.2,4,3.2,7.2c0,1.7-0.4,3.5-1.1,5.1
		c-0.7,1.5-1.7,2.9-2.9,4.1c-1.2,1.2-2.6,2.1-4.2,2.7C211.7,29.8,210,30.1,208.2,30.1L208.2,30.1z M231.7,21.5l19.8-3.1l-4.9,19.8
		h21.2l-3.8,15.6H243l-5.6,23.5c-0.5,2-0.8,3.8-0.9,5.5c-0.1,1.7,0.1,3.2,0.6,4.4c0.5,1.2,1.4,2.2,2.7,2.9c1.3,0.7,3.2,1,5.7,1
		c2,0,4-0.2,6-0.6c2-0.4,3.9-0.9,5.8-1.6l1.4,14.6c-2.7,1-5.5,1.8-8.3,2.4c-3,0.7-6.5,1-10.6,1c-5.9,0-10.4-0.9-13.7-2.6
		c-3.2-1.7-5.5-4.1-6.9-7.2c-1.4-3-2-6.5-1.8-10.4c0.2-3.9,0.8-8.1,1.8-12.4L231.7,21.5L231.7,21.5z M267.1,78.7
		c0-5.8,0.9-11.3,2.8-16.4c1.9-5.1,4.6-9.6,8.1-13.4c3.5-3.8,7.7-6.9,12.7-9.1c5-2.2,10.5-3.3,16.7-3.3c3.8,0,7.3,0.4,10.3,1.1
		c3,0.7,5.8,1.7,8.3,2.9l-6.5,14.8c-1.7-0.7-3.5-1.3-5.3-1.9c-1.8-0.6-4.1-0.8-6.7-0.8c-6.3,0-11.3,2.2-15,6.5
		c-3.7,4.3-5.6,10.2-5.6,17.5c0,4.3,0.9,7.9,2.8,10.5c1.9,2.7,5.3,4,10.4,4c2.5,0,4.9-0.3,7.2-0.8c2.3-0.5,4.3-1.2,6.1-1.9l1.4,15.2
		c-2.6,1-5.2,1.8-7.9,2.5c-2.9,0.7-6.4,1.1-10.4,1.1c-5.3,0-9.8-0.8-13.4-2.3c-3.7-1.5-6.7-3.6-9.1-6.2c-2.4-2.6-4.1-5.7-5.2-9.1
		C267.6,86.2,267.1,82.5,267.1,78.7L267.1,78.7z M351.1,107.3c-4.5,0-8.4-0.7-11.8-2.1c-3.3-1.4-6.1-3.3-8.2-5.8
		c-2.2-2.5-3.8-5.4-4.9-8.8c-1.1-3.4-1.7-7.1-1.7-11.2c0-5.1,0.8-10.2,2.5-15.4c1.7-5.1,4.1-9.7,7.4-13.8c3.2-4.1,7.2-7.4,11.9-10.1
		c4.7-2.6,10.1-3.9,16.1-3.9c4.4,0,8.3,0.7,11.7,2.1c3.4,1.4,6.1,3.3,8.3,5.8c2.2,2.5,3.8,5.4,4.9,8.8c1.1,3.4,1.7,7.1,1.7,11.2
		c0,5.1-0.8,10.2-2.4,15.4c-1.6,5.1-4,9.7-7.2,13.8c-3.2,4.1-7.1,7.4-11.8,10C362.9,106,357.4,107.3,351.1,107.3L351.1,107.3z
		 M360.6,52.6c-2.8,0-5.3,0.8-7.4,2.4c-2.1,1.6-3.9,3.7-5.4,6.1c-1.5,2.5-2.5,5.2-3.3,8.1c-0.7,2.9-1.1,5.7-1.1,8.4
		c0,4.3,0.7,7.6,2,10c1.4,2.4,3.8,3.6,7.4,3.6c2.8,0,5.3-0.8,7.4-2.4c2.1-1.6,3.9-3.7,5.4-6.1c1.4-2.5,2.5-5.2,3.3-8.1
		c0.7-2.9,1.1-5.7,1.1-8.4c0-4.3-0.7-7.6-2.1-10C366.7,53.8,364.2,52.6,360.6,52.6L360.6,52.6z M409.6,105.6h-18.9l16-67.3h19.1
		L409.6,105.6L409.6,105.6z M418.8,30.1c-2.6,0-5.1-0.8-7.2-2.4c-2.1-1.6-3.2-4-3.2-7.2c0-1.8,0.4-3.5,1.1-5
		c0.7-1.5,1.7-2.9,2.9-4.1c1.2-1.2,2.6-2.1,4.2-2.8c1.6-0.7,3.3-1,5-1c2.6,0,5,0.8,7.2,2.4c2.1,1.6,3.2,4,3.2,7.2
		c0,1.8-0.4,3.5-1.1,5.1c-0.7,1.6-1.7,2.9-2.9,4.1c-1.2,1.2-2.6,2.1-4.2,2.7C422.3,29.8,420.6,30.1,418.8,30.1L418.8,30.1z
		 M439.4,41.4c1.4-0.4,3-0.9,4.8-1.5c1.9-0.6,3.9-1.1,5.9-1.5c2.2-0.5,4.6-0.9,7.3-1.2c2.7-0.3,5.7-0.5,9.1-0.5
		c10,0,16.9,2.9,20.7,8.7c3.8,5.8,4.5,13.7,2,23.8l-8.7,36.3h-19.1l8.4-35.6c0.5-2.2,0.9-4.4,1.2-6.5c0.3-2.1,0.3-3.9-0.1-5.5
		c-0.3-1.5-1.1-2.9-2.4-3.8c-1.2-1-3.1-1.5-5.7-1.5c-2.5,0-5.1,0.3-7.5,0.8l-12.4,52h-19.1L439.4,41.4L439.4,41.4z"/>
</g>
</svg>
