<?xml version="1.0" encoding="utf-8"?>
<!-- Generator: Adobe Illustrator 22.0.0, SVG Export Plug-In . SVG Version: 6.00 Build 0)  -->
<svg version="1.1" id="Layer_1" xmlns="http://www.w3.org/2000/svg" xmlns:xlink="http://www.w3.org/1999/xlink" x="0px" y="0px"
	 viewBox="0 0 331.9 113.7" style="enable-background:new 0 0 331.9 113.7;" xml:space="preserve">
<style type="text/css">
	.st0{fill:#F7931A;}
	.st1{fill:#4D4D4D;}
	.st2{fill:#66991A;}
	.st3{fill:#FCC103;}
	.st4{fill:#FFFFFF;}
	.st5{fill:#00206B;}
	.st6{fill:#FEFEFE;}
	.st7{fill:#7884D1;}
	.st8{fill:#9DA7DF;}
	.st9{fill:#7785D1;}
	.st10{fill:#5C67C6;}
	.st11{fill:#2E302F;}
	.st12{fill:#828486;}
	.st13{fill:#020707;}
	.st14{fill:#343535;}
	.st15{font-family:'Helvetica-Bold';}
	.st16{font-size:30px;}
	.st17{fill:#BEBEBE;}
	.st18{fill:#626264;}
	.st19{fill:#474D55;}
	.st20{clip-path:url(#SVGID_2_);fill:url(#SVGID_3_);}
	.st21{fill:#9C844E;}
	.st22{fill:#808084;}
	.st23{fill:#86868A;}
	.st24{fill:#9D854E;}
	.st25{fill:#7F7F83;}
	.st26{fill:#0D0D0D;}
	.st27{fill:#0C0C0C;}
	.st28{fill:#9D854F;}
	.st29{fill:#91856A;}
	.st30{fill:#828286;}
	.st31{fill:#A89262;}
	.st32{fill:#AB9768;}
	.st33{fill:#CACACC;}
	.st34{fill:#90846A;}
	.st35{fill:#A6946A;}
	.st36{fill:#818185;}
	.st37{fill:#EDE9E0;}
	.st38{fill:#F1EEE6;}
	.st39{fill:#EFEBE3;}
	.st40{fill:#F2F0E9;}
	.st41{fill:#F0EDE5;}
	.st42{fill:#F4F2EC;}
	.st43{fill:#F2EFE8;}
	.st44{fill:#F3F0EA;}
	.st45{fill:#F1EEE7;}
	.st46{fill:#F5F3EE;}
	.st47{fill:#F6F4EF;}
	.st48{fill:#F6F4F0;}
	.st49{fill:#F7F6F2;}
	.st50{fill:#F7F5F2;}
	.st51{fill:#F1F1F1;}
	.st52{fill:#F6F6F6;}
	.st53{fill:#EEEEEE;}
	.st54{fill:#141414;}
	.st55{fill:#E0E0E0;}
	.st56{fill:#838383;}
	.st57{fill:#101010;}
	.st58{fill:#FBFBFB;}
	.st59{fill:#B8B8B8;}
	.st60{fill:#494949;}
	.st61{fill:#E3E3E3;}
	.st62{fill:#D8D8D8;}
	.st63{fill:#777777;}
	.st64{fill:#F0F0F0;}
	.st65{fill:#858585;}
	.st66{fill:#EBEBEB;}
	.st67{fill:#565656;}
	.st68{fill:#353535;}
	.st69{fill:#EAEAEA;}
	.st70{fill:#878787;}
	.st71{fill:#C3C3C3;}
	.st72{fill:#888888;}
	.st73{fill:#848484;}
	.st74{fill:#F2F2F2;}
	.st75{fill:#EFEFEF;}
	.st76{fill:#F8F8F8;}
	.st77{fill:#111111;}
	.st78{fill:#2E2E2E;}
	.st79{fill:#DCDCDC;}
	.st80{fill:#C0C0C0;}
	.st81{fill:#DEDEDE;}
	.st82{fill:#202020;}
	.st83{fill:#E5E5E5;}
	.st84{fill:#E1E1E1;}
	.st85{fill:#404040;}
	.st86{fill:#3B3B3B;}
	.st87{fill:#6C6C6C;}
	.st88{fill:#CCCCCC;}
	.st89{fill:#B9B9B9;}
	.st90{fill:#C7C7C7;}
	.st91{fill:#FAFAFA;}
	.st92{fill:#868686;}
	.st93{fill:#C1C1C1;}
	.st94{fill:#484848;}
	.st95{fill:#393939;}
	.st96{fill:#B7B7B7;}
	.st97{fill:#1A1A1A;}
	.st98{fill:#AEAEAE;}
	.st99{fill:#1B1B1B;}
	.st100{fill:#0E0E0E;}
	.st101{fill:#C2C2C2;}
	.st102{fill:#C5C5C5;}
	.st103{fill:#919191;}
	.st104{fill:#E4E4E4;}
	.st105{fill:#E7E7E7;}
	.st106{fill:#EDEDED;}
	.st107{fill:#1F1F1F;}
	.st108{fill:#ECECEC;}
	.st109{fill:#4C4C4C;}
	.st110{fill:#D0D0D0;}
	.st111{fill:#7B7B7B;}
	.st112{fill:#C9C9C9;}
</style>
<g>
	<g>
		<path class="st11" d="M37.4,1.2l-0.7,2.5v71.9l0.7,0.7l33.4-19.7L37.4,1.2z"/>
		<path class="st12" d="M37.4,1.2L4,56.6l33.4,19.7V41.4V1.2z"/>
		<path class="st11" d="M37.4,82.7L37,83.2v25.6l0.4,1.2l33.4-47.1L37.4,82.7z"/>
		<path class="st12" d="M37.4,110V82.7L4,62.9L37.4,110z"/>
		<path class="st13" d="M37.4,76.3l33.4-19.7L37.4,41.4L37.4,76.3z"/>
		<path class="st14" d="M4,56.6l33.4,19.7V41.4L4,56.6z"/>
	</g>
	<path class="st13" d="M103.9,31.4c-6,0-10.3,5.4-10.3,11.2c0,5.8,4.3,11.2,10.3,11.2c3.5,0,7.1-1.5,8.9-4.7
		c0.1-0.2,0.2-0.3,0.1-0.6c0-0.3-0.2-0.5-0.5-0.7c-0.5-0.2-0.9,0-1.1,0.4c-1.8,2.6-4.2,3.8-7.4,3.8c-4.7,0-8-4.1-8.5-8.5h18
		c0.5,0,0.9-0.4,0.9-0.9v0C114.3,36.7,110,31.3,103.9,31.4z M95.4,41.6c0.5-4.4,3.8-8.5,8.5-8.5c4.7,0,8.1,4.1,8.5,8.5H95.4z"/>
	<path class="st13" d="M136.1,31.8c0.5,0,0.9,0.5,0.9,0.9c0,0.5-0.4,0.9-0.9,0.9h-4.8v18.9c0,0.5-0.4,0.9-0.9,0.9
		c-0.5,0-0.9-0.5-0.9-0.9V33.6h-4.6c-0.5,0-0.9-0.4-0.9-0.9c0-0.5,0.4-0.9,0.9-0.9h4.6v-6.9c0-0.4,0.3-0.8,0.7-0.9
		c0.6-0.1,1.1,0.3,1.1,0.9v6.9H136.1z"/>
	<path class="st13" d="M165.5,40.9v11.5c0,0.5-0.5,0.9-0.9,0.9c-0.5,0-0.9-0.4-0.9-0.9V40.9c0-3.9-2.2-7.7-6.5-7.7
		c-5.5,0-7.9,4.8-7.6,9.8c0,0.1,0.1,0.7,0.1,0.8v8.6c0,0.4-0.3,0.8-0.7,0.9c-0.6,0.1-1.1-0.3-1.1-0.9V14.8c0-0.5,0.4-0.9,0.9-0.9
		c0.5,0,0.9,0.5,0.9,0.9V36c1.5-2.8,4.3-4.6,7.5-4.6C162.5,31.4,165.5,36,165.5,40.9"/>
	<path class="st13" d="M187.3,31.4c-6,0-10.3,5.4-10.3,11.2c0,5.8,4.3,11.2,10.3,11.2c3.5,0,7.1-1.5,8.9-4.7
		c0.1-0.2,0.2-0.3,0.1-0.6c0-0.3-0.2-0.5-0.5-0.7c-0.5-0.2-0.9,0-1.1,0.4c-1.8,2.6-4.2,3.8-7.4,3.8c-4.7,0-8-4.1-8.5-8.5h18
		c0.5,0,0.9-0.4,0.9-0.9v0C197.7,36.7,193.4,31.3,187.3,31.4z M178.8,41.6c0.5-4.4,3.8-8.5,8.5-8.5s8.1,4.1,8.5,8.5H178.8z"/>
	<path class="st13" d="M219.8,32.6c0,0.6-0.3,0.9-0.8,1c-5.3,0.8-7.6,5.1-7.6,10.1v8.6c0,0.4-0.3,0.8-0.7,0.9
		c-0.6,0.1-1.1-0.3-1.1-0.9V32.7c0-0.4,0.3-0.8,0.7-0.9c0.6-0.1,1.1,0.3,1.1,0.9v4c1.5-2.5,4.4-4.9,7.5-4.9
		C219.3,31.8,219.8,32.1,219.8,32.6"/>
	<path class="st13" d="M238.9,31.4c-6,0-10.3,5.4-10.3,11.2c0,5.8,4.3,11.2,10.3,11.2c3.5,0,7.1-1.5,8.9-4.7
		c0.1-0.2,0.2-0.3,0.1-0.6c0-0.3-0.2-0.5-0.5-0.7c-0.5-0.2-0.9,0-1.1,0.4c-1.8,2.6-4.2,3.8-7.4,3.8c-4.7,0-8-4.1-8.5-8.5h18
		c0.5,0,0.9-0.4,0.9-0.9v0C249.3,36.7,245,31.3,238.9,31.4z M230.4,41.6c0.5-4.4,3.8-8.5,8.5-8.5c4.7,0,8.1,4.1,8.5,8.5H230.4z"/>
	<path class="st13" d="M278.4,32.9v19.6c0,0.5-0.5,0.9-0.9,0.9c-0.5,0-0.9-0.4-0.9-0.9v-3.7c-1.5,3-4.1,5.1-7.5,5.1
		c-5.3,0-8.3-4.6-8.3-9.5V32.8c0-0.5,0.4-0.9,0.9-0.9c0.5,0,0.9,0.5,0.9,0.9v11.5c0,3.9,2.2,7.7,6.5,7.7c6.1,0,7.5-5.7,7.5-11.9
		v-7.3c0-0.5,0.5-1,1.2-0.9C278.1,32.1,278.4,32.5,278.4,32.9"/>
	<path class="st13" d="M323.8,40.9v11.5c0,0.5-0.5,0.9-0.9,0.9c-0.5,0-0.9-0.4-0.9-0.9V40.9c0-3.9-2.2-7.6-6.5-7.6
		c-5.4,0-7.5,5.8-7.5,10.3v8.9c0,0.5-0.5,0.9-0.9,0.9c-0.5,0-0.9-0.4-0.9-0.9V40.8c0-3.9-2.2-7.6-6.5-7.6c-5.5,0-7.7,4.3-7.5,10
		c0,0.1,0.1,0.4,0,0.5v8.7c0,0.4-0.3,0.8-0.7,0.9c-0.6,0.1-1.1-0.3-1.1-0.9V32.7c0-0.4,0.3-0.8,0.7-0.9c0.6-0.1,1.1,0.3,1.1,0.9V36
		c1.5-2.8,4.3-4.6,7.5-4.6c3.7,0,6.5,2.3,7.6,5.7c1.5-3.4,4.4-5.7,8.1-5.7C320.8,31.4,323.8,36,323.8,40.9"/>
	<text transform="matrix(1 0 0 1 91.8118 90.8328)" class="st12 st15 st16">ERC20</text>
</g>
</svg>
