<?xml version="1.0" encoding="utf-8"?>
<!-- Generator: Adobe Illustrator 22.0.0, SVG Export Plug-In . SVG Version: 6.00 Build 0)  -->
<svg version="1.1" id="Layer_1" xmlns="http://www.w3.org/2000/svg" xmlns:xlink="http://www.w3.org/1999/xlink" x="0px" y="0px"
	 viewBox="0 0 387.9 113.7" style="enable-background:new 0 0 387.9 113.7;" xml:space="preserve">
<style type="text/css">
	.st0{fill:#F7931A;}
	.st1{fill:#4D4D4D;}
	.st2{fill:#66991A;}
	.st3{fill:#FCC103;}
	.st4{fill:#FFFFFF;}
	.st5{fill:#00206B;}
	.st6{fill:#FEFEFE;}
	.st7{fill:#7884D1;}
	.st8{fill:#9DA7DF;}
	.st9{fill:#7785D1;}
	.st10{fill:#5C67C6;}
	.st11{fill:#2E302F;}
	.st12{fill:#828486;}
	.st13{fill:#020707;}
	.st14{fill:#343535;}
	.st15{fill:#BEBEBE;}
	.st16{fill:#626264;}
	.st17{fill:#474D55;}
	.st18{clip-path:url(#SVGID_2_);fill:url(#SVGID_3_);}
	.st19{fill:#9C844E;}
	.st20{fill:#808084;}
	.st21{fill:#86868A;}
	.st22{fill:#9D854E;}
	.st23{fill:#7F7F83;}
	.st24{fill:#0D0D0D;}
	.st25{fill:#0C0C0C;}
	.st26{fill:#9D854F;}
	.st27{fill:#91856A;}
	.st28{fill:#828286;}
	.st29{fill:#A89262;}
	.st30{fill:#AB9768;}
	.st31{fill:#CACACC;}
	.st32{fill:#90846A;}
	.st33{fill:#A6946A;}
	.st34{fill:#818185;}
	.st35{fill:#EDE9E0;}
	.st36{fill:#F1EEE6;}
	.st37{fill:#EFEBE3;}
	.st38{fill:#F2F0E9;}
	.st39{fill:#F0EDE5;}
	.st40{fill:#F4F2EC;}
	.st41{fill:#F2EFE8;}
	.st42{fill:#F3F0EA;}
	.st43{fill:#F1EEE7;}
	.st44{fill:#F5F3EE;}
	.st45{fill:#F6F4EF;}
	.st46{fill:#F6F4F0;}
	.st47{fill:#F7F6F2;}
	.st48{fill:#F7F5F2;}
	.st49{fill:#F1F1F1;}
	.st50{fill:#F6F6F6;}
	.st51{fill:#EEEEEE;}
	.st52{fill:#141414;}
	.st53{fill:#E0E0E0;}
	.st54{fill:#838383;}
	.st55{fill:#101010;}
	.st56{fill:#FBFBFB;}
	.st57{fill:#B8B8B8;}
	.st58{fill:#494949;}
	.st59{fill:#E3E3E3;}
	.st60{fill:#D8D8D8;}
	.st61{fill:#777777;}
	.st62{fill:#F0F0F0;}
	.st63{fill:#858585;}
	.st64{fill:#EBEBEB;}
	.st65{fill:#565656;}
	.st66{fill:#353535;}
	.st67{fill:#EAEAEA;}
	.st68{fill:#878787;}
	.st69{fill:#C3C3C3;}
	.st70{fill:#888888;}
	.st71{fill:#848484;}
	.st72{fill:#F2F2F2;}
	.st73{fill:#EFEFEF;}
	.st74{fill:#F8F8F8;}
	.st75{fill:#111111;}
	.st76{fill:#2E2E2E;}
	.st77{fill:#DCDCDC;}
	.st78{fill:#C0C0C0;}
	.st79{fill:#DEDEDE;}
	.st80{fill:#202020;}
	.st81{fill:#E5E5E5;}
	.st82{fill:#E1E1E1;}
	.st83{fill:#404040;}
	.st84{fill:#3B3B3B;}
	.st85{fill:#6C6C6C;}
	.st86{fill:#CCCCCC;}
	.st87{fill:#B9B9B9;}
	.st88{fill:#C7C7C7;}
	.st89{fill:#FAFAFA;}
	.st90{fill:#868686;}
	.st91{fill:#C1C1C1;}
	.st92{fill:#484848;}
	.st93{fill:#393939;}
	.st94{fill:#B7B7B7;}
	.st95{fill:#1A1A1A;}
	.st96{fill:#AEAEAE;}
	.st97{fill:#1B1B1B;}
	.st98{fill:#0E0E0E;}
	.st99{fill:#C2C2C2;}
	.st100{fill:#C5C5C5;}
	.st101{fill:#919191;}
	.st102{fill:#E4E4E4;}
	.st103{fill:#E7E7E7;}
	.st104{fill:#EDEDED;}
	.st105{fill:#1F1F1F;}
	.st106{fill:#ECECEC;}
	.st107{fill:#4C4C4C;}
	.st108{fill:#D0D0D0;}
	.st109{fill:#7B7B7B;}
	.st110{fill:#C9C9C9;}
</style>
<g>
	<g>
		<path class="st7" d="M37.4,1.2l-0.7,2.5v71.9l0.7,0.7l33.4-19.7L37.4,1.2z"/>
		<path class="st8" d="M37.4,1.2L4,56.6l33.4,19.7V41.4V1.2z"/>
		<path class="st9" d="M37.4,82.7L37,83.2v25.6l0.4,1.2l33.4-47.1L37.4,82.7z"/>
		<path class="st8" d="M37.4,110V82.7L4,62.9L37.4,110z"/>
		<path class="st10" d="M37.4,76.3l33.4-19.7L37.4,41.4L37.4,76.3z"/>
		<path class="st9" d="M4,56.6l33.4,19.7V41.4L4,56.6z"/>
	</g>
	<path class="st10" d="M106.6,46.9c-7.6,0-13,6.8-13,14.1c0,7.3,5.4,14.1,13,14.1c4.4,0,9-1.9,11.2-5.9c0.1-0.2,0.2-0.4,0.1-0.8
		s-0.3-0.7-0.6-0.8c-0.6-0.3-1.1,0-1.4,0.5c-2.3,3.2-5.3,4.8-9.3,4.8c-5.9,0-10.1-5.1-10.7-10.7h22.6c0.6,0,1.2-0.5,1.2-1.2v0
		C119.7,53.6,114.2,46.9,106.6,46.9z M95.9,59.8c0.6-5.6,4.8-10.7,10.7-10.7s10.2,5.1,10.7,10.7H95.9z"/>
	<path class="st10" d="M147.1,47.4c0.7,0,1.1,0.6,1.1,1.1c0,0.7-0.5,1.1-1.1,1.1h-6.1v23.8c0,0.6-0.5,1.1-1.1,1.1
		c-0.7,0-1.1-0.6-1.1-1.1V49.7H133c-0.7,0-1.1-0.5-1.1-1.1c0-0.6,0.5-1.1,1.1-1.1h5.8v-8.7c0-0.6,0.4-1.1,0.9-1.1
		c0.8-0.1,1.4,0.4,1.4,1.1v8.7H147.1z"/>
	<path class="st10" d="M184.2,58.9v14.4c0,0.7-0.6,1.1-1.1,1.1c-0.7,0-1.1-0.5-1.1-1.1V58.9c0-4.9-2.7-9.7-8.2-9.7
		c-7,0-10,6.1-9.5,12.3c0,0.2,0.1,0.9,0.1,1v10.8c0,0.6-0.4,1.1-0.9,1.1c-0.8,0.1-1.4-0.4-1.4-1.1V26c0-0.6,0.5-1.1,1.1-1.1
		c0.7,0,1.1,0.6,1.1,1.1v26.8c1.9-3.5,5.4-5.8,9.5-5.8C180.3,46.9,184.2,52.8,184.2,58.9"/>
	<path class="st10" d="M211.6,46.9c-7.6,0-13,6.8-13,14.1c0,7.3,5.4,14.1,13,14.1c4.4,0,9-1.9,11.2-5.9c0.1-0.2,0.2-0.4,0.1-0.8
		c-0.1-0.4-0.3-0.7-0.6-0.8c-0.6-0.3-1.1,0-1.4,0.5c-2.3,3.2-5.3,4.8-9.3,4.8c-5.9,0-10.1-5.1-10.7-10.7h22.6c0.6,0,1.2-0.5,1.2-1.2
		v0C224.7,53.6,219.2,46.9,211.6,46.9z M200.9,59.8c0.6-5.6,4.8-10.7,10.7-10.7s10.2,5.1,10.7,10.7H200.9z"/>
	<path class="st10" d="M252.5,48.5c0,0.7-0.4,1.1-1,1.2c-6.6,1-9.6,6.4-9.6,12.7v10.8c0,0.6-0.4,1.1-0.9,1.1
		c-0.8,0.1-1.4-0.4-1.4-1.1V48.6c0-0.6,0.4-1.1,0.9-1.1c0.8-0.1,1.4,0.4,1.4,1.1v5c1.9-3.2,5.6-6.1,9.5-6.1
		C251.8,47.4,252.5,47.8,252.5,48.5"/>
	<path class="st10" d="M276.5,46.9c-7.6,0-13,6.8-13,14.1c0,7.3,5.4,14.1,13,14.1c4.4,0,9-1.9,11.2-5.9c0.1-0.2,0.2-0.4,0.1-0.8
		c-0.1-0.4-0.3-0.7-0.6-0.8c-0.6-0.3-1.1,0-1.4,0.5c-2.3,3.2-5.3,4.8-9.3,4.8c-5.9,0-10.1-5.1-10.7-10.7h22.6c0.6,0,1.2-0.5,1.2-1.2
		v0C289.6,53.6,284.1,46.9,276.5,46.9z M265.8,59.8c0.6-5.6,4.8-10.7,10.7-10.7c5.9,0,10.2,5.1,10.7,10.7H265.8z"/>
	<path class="st10" d="M326.1,48.8v24.7c0,0.7-0.6,1.1-1.1,1.1c-0.7,0-1.1-0.5-1.1-1.1v-4.7c-1.9,3.7-5.2,6.4-9.4,6.4
		c-6.7,0-10.4-5.8-10.4-12V48.7c0-0.6,0.5-1.1,1.1-1.1c0.7,0,1.1,0.6,1.1,1.1v14.5c0,4.9,2.7,9.7,8.2,9.7c7.6,0,9.4-7.1,9.4-15v-9.2
		c0-0.7,0.7-1.3,1.5-1.1C325.8,47.8,326.1,48.3,326.1,48.8"/>
	<path class="st10" d="M383.4,58.8v14.5c0,0.7-0.6,1.1-1.1,1.1c-0.7,0-1.1-0.5-1.1-1.1V58.8c0-4.9-2.7-9.6-8.2-9.6
		c-6.8,0-9.4,7.3-9.4,12.9v11.2c0,0.7-0.6,1.1-1.1,1.1c-0.7,0-1.1-0.5-1.1-1.1V58.8c0-4.9-2.7-9.6-8.2-9.6c-6.9,0-9.7,5.4-9.5,12.6
		c0,0.2,0.1,0.5,0,0.6v10.9c0,0.6-0.4,1.1-0.9,1.1c-0.8,0.1-1.4-0.4-1.4-1.1V48.6c0-0.6,0.4-1.1,0.9-1.1c0.8-0.1,1.4,0.4,1.4,1.1
		v4.1c1.9-3.5,5.4-5.8,9.5-5.8c4.6,0,8.2,2.9,9.6,7.2c1.9-4.2,5.5-7.2,10.2-7.2C379.5,46.9,383.4,52.7,383.4,58.8"/>
</g>
</svg>
