<?xml version="1.0" encoding="utf-8"?>
<!-- Generator: Adobe Illustrator 22.0.0, SVG Export Plug-In . SVG Version: 6.00 Build 0)  -->
<svg version="1.1" id="Layer_1" xmlns="http://www.w3.org/2000/svg" xmlns:xlink="http://www.w3.org/1999/xlink" x="0px" y="0px"
	 viewBox="0 0 412.9 113.7" style="enable-background:new 0 0 412.9 113.7;" xml:space="preserve">
<style type="text/css">
	.st0{fill:#F7931A;}
	.st1{fill:#4D4D4D;}
	.st2{fill:#66991A;}
	.st3{fill:#FCC103;}
	.st4{fill:#FFFFFF;}
	.st5{fill:#00206B;}
	.st6{fill:#FEFEFE;}
	.st7{fill:#7884D1;}
	.st8{fill:#9DA7DF;}
	.st9{fill:#7785D1;}
	.st10{fill:#5C67C6;}
	.st11{fill:#2E302F;}
	.st12{fill:#828486;}
	.st13{fill:#020707;}
	.st14{fill:#343535;}
	.st15{fill:#BEBEBE;}
	.st16{fill:#626264;}
	.st17{fill:#474D55;}
	.st18{clip-path:url(#SVGID_2_);fill:url(#SVGID_3_);}
	.st19{fill:#9C844E;}
	.st20{fill:#808084;}
	.st21{fill:#86868A;}
	.st22{fill:#9D854E;}
	.st23{fill:#7F7F83;}
	.st24{fill:#0D0D0D;}
	.st25{fill:#0C0C0C;}
	.st26{fill:#9D854F;}
	.st27{fill:#91856A;}
	.st28{fill:#828286;}
	.st29{fill:#A89262;}
	.st30{fill:#AB9768;}
	.st31{fill:#CACACC;}
	.st32{fill:#90846A;}
	.st33{fill:#A6946A;}
	.st34{fill:#818185;}
	.st35{fill:#EDE9E0;}
	.st36{fill:#F1EEE6;}
	.st37{fill:#EFEBE3;}
	.st38{fill:#F2F0E9;}
	.st39{fill:#F0EDE5;}
	.st40{fill:#F4F2EC;}
	.st41{fill:#F2EFE8;}
	.st42{fill:#F3F0EA;}
	.st43{fill:#F1EEE7;}
	.st44{fill:#F5F3EE;}
	.st45{fill:#F6F4EF;}
	.st46{fill:#F6F4F0;}
	.st47{fill:#F7F6F2;}
	.st48{fill:#F7F5F2;}
	.st49{fill:#F1F1F1;}
	.st50{fill:#F6F6F6;}
	.st51{fill:#EEEEEE;}
	.st52{fill:#141414;}
	.st53{fill:#E0E0E0;}
	.st54{fill:#838383;}
	.st55{fill:#101010;}
	.st56{fill:#FBFBFB;}
	.st57{fill:#B8B8B8;}
	.st58{fill:#494949;}
	.st59{fill:#E3E3E3;}
	.st60{fill:#D8D8D8;}
	.st61{fill:#777777;}
	.st62{fill:#F0F0F0;}
	.st63{fill:#858585;}
	.st64{fill:#EBEBEB;}
	.st65{fill:#565656;}
	.st66{fill:#353535;}
	.st67{fill:#EAEAEA;}
	.st68{fill:#878787;}
	.st69{fill:#C3C3C3;}
	.st70{fill:#888888;}
	.st71{fill:#848484;}
	.st72{fill:#F2F2F2;}
	.st73{fill:#EFEFEF;}
	.st74{fill:#F8F8F8;}
	.st75{fill:#111111;}
	.st76{fill:#2E2E2E;}
	.st77{fill:#DCDCDC;}
	.st78{fill:#C0C0C0;}
	.st79{fill:#DEDEDE;}
	.st80{fill:#202020;}
	.st81{fill:#E5E5E5;}
	.st82{fill:#E1E1E1;}
	.st83{fill:#404040;}
	.st84{fill:#3B3B3B;}
	.st85{fill:#6C6C6C;}
	.st86{fill:#CCCCCC;}
	.st87{fill:#B9B9B9;}
	.st88{fill:#C7C7C7;}
	.st89{fill:#FAFAFA;}
	.st90{fill:#868686;}
	.st91{fill:#C1C1C1;}
	.st92{fill:#484848;}
	.st93{fill:#393939;}
	.st94{fill:#B7B7B7;}
	.st95{fill:#1A1A1A;}
	.st96{fill:#AEAEAE;}
	.st97{fill:#1B1B1B;}
	.st98{fill:#0E0E0E;}
	.st99{fill:#C2C2C2;}
	.st100{fill:#C5C5C5;}
	.st101{fill:#919191;}
	.st102{fill:#E4E4E4;}
	.st103{fill:#E7E7E7;}
	.st104{fill:#EDEDED;}
	.st105{fill:#1F1F1F;}
	.st106{fill:#ECECEC;}
	.st107{fill:#4C4C4C;}
	.st108{fill:#D0D0D0;}
	.st109{fill:#7B7B7B;}
	.st110{fill:#C9C9C9;}
</style>
<g>
	<path class="st15" d="M55.8,4.6C26.7,4.6,3.1,28.2,3.1,57.3c0,29.1,23.6,52.7,52.7,52.7c29.1,0,52.7-23.6,52.7-52.7v0
		C108.5,28.2,84.9,4.6,55.8,4.6z M77,81.7H33.7l4.4-16.6l-6.3,2.3l2.1-7.8l6.3-2.3l7.5-28.2H64l-5.7,21.6l8-2.9l0.1,0.2l-2,7.6
		l-8.1,3l-3.4,12.9l0,0h27.1L77,81.7z"/>
	<g>
		<path class="st16" d="M125.4,19.9h5.7v71.6h-5.7V19.9z"/>
		<path class="st16" d="M144.9,30.4c0-1.2,0.4-2.2,1.2-3c0.8-0.8,1.8-1.2,3-1.2s2.2,0.4,3,1.2c0.8,0.8,1.2,1.8,1.2,3
			c0,1.2-0.4,2.2-1.2,3c-0.8,0.8-1.8,1.2-3,1.2s-2.2-0.4-3-1.2C145.3,32.6,144.9,31.6,144.9,30.4z M146.3,47.7h5.7v43.8h-5.7V47.7z"
			/>
		<path class="st16" d="M187.6,52.8h-12.5v28.5c0,2,0.5,3.5,1.6,4.5c1.1,1.1,2.6,1.6,4.5,1.6c1.1,0,2.2-0.1,3.3-0.4
			c1.1-0.3,2.2-0.6,3.2-1.1l0.5,5.1c-1.1,0.4-2.3,0.7-3.7,1c-1.4,0.3-2.6,0.5-3.7,0.5c-2,0-3.8-0.3-5.2-0.9
			c-1.5-0.6-2.6-1.4-3.5-2.4c-0.9-1-1.5-2.2-1.9-3.6c-0.4-1.4-0.6-2.8-0.6-4.4V52.8h-9.5v-5.1h9.5V35.1h5.7v12.6h12.5V52.8z"/>
		<path class="st16" d="M234.5,83.2c-2.2,3.3-4.9,5.7-8.2,7.2c-3.3,1.5-6.8,2.2-10.8,2.2c-3.3,0-6.4-0.6-9.1-1.7
			c-2.7-1.1-5.1-2.7-7-4.8c-2-2.1-3.5-4.5-4.5-7.3c-1-2.8-1.6-5.9-1.6-9.3c0-3.3,0.5-6.3,1.6-9.1c1.1-2.8,2.6-5.2,4.5-7.2
			c2-2.1,4.3-3.7,6.9-4.8c2.7-1.2,5.6-1.8,8.8-1.8c3.3,0,6.3,0.6,8.9,1.8c2.6,1.2,4.7,2.7,6.4,4.6c1.7,1.9,3,4.1,3.9,6.6
			c0.9,2.5,1.3,5,1.3,7.5v4h-36.7c0,1.2,0.2,2.7,0.7,4.6c0.5,1.9,1.3,3.7,2.6,5.4c1.3,1.8,2.9,3.3,5.1,4.5c2.1,1.3,4.8,1.9,8.2,1.9
			c2.9,0,5.7-0.7,8.4-2.1c2.7-1.4,4.8-3.3,6.3-5.7L234.5,83.2z M230.1,65.9c0-2-0.4-3.8-1.2-5.5c-0.8-1.7-1.9-3.2-3.2-4.5
			c-1.4-1.3-3-2.3-4.8-3.1c-1.9-0.8-3.8-1.1-5.9-1.1c-3.1,0-5.7,0.6-7.7,1.9c-2.1,1.3-3.7,2.7-4.9,4.4c-1.2,1.6-2.1,3.2-2.6,4.8
			c-0.5,1.5-0.8,2.6-0.8,3.2H230.1z"/>
		<path class="st16" d="M283.3,85c-2.1,2.6-4.6,4.5-7.3,5.7c-2.7,1.2-5.7,1.8-8.8,1.8c-3.3,0-6.4-0.6-9.3-1.7
			c-2.8-1.1-5.3-2.7-7.3-4.8c-2-2.1-3.6-4.5-4.7-7.3c-1.1-2.8-1.7-5.9-1.7-9.2c0-3.3,0.6-6.4,1.7-9.2c1.1-2.8,2.7-5.2,4.7-7.3
			c2-2.1,4.5-3.6,7.3-4.8c2.8-1.1,5.9-1.7,9.3-1.7c3.2,0,6.2,0.7,8.9,2c2.7,1.3,5.2,3.2,7.3,5.6l-4.5,3.4c-1.6-1.8-3.4-3.3-5.4-4.3
			c-2-1-4.1-1.6-6.3-1.6c-2.7,0-5.1,0.5-7.2,1.4c-2.1,0.9-4,2.2-5.5,3.8c-1.5,1.6-2.7,3.5-3.5,5.7c-0.8,2.2-1.2,4.5-1.2,7
			c0,2.5,0.4,4.8,1.2,7c0.8,2.2,1.9,4.1,3.5,5.7s3.3,2.9,5.5,3.8s4.5,1.4,7.2,1.4c2.4,0,4.6-0.6,6.6-1.7c2-1.1,3.7-2.6,5.2-4.4
			L283.3,85z"/>
		<path class="st16" d="M287.8,69.6c0-3.3,0.6-6.4,1.7-9.2c1.1-2.8,2.7-5.2,4.7-7.3c2-2.1,4.5-3.6,7.3-4.8c2.8-1.1,5.9-1.7,9.3-1.7
			c3.3,0,6.4,0.6,9.2,1.7c2.8,1.1,5.2,2.7,7.3,4.8c2.1,2.1,3.6,4.5,4.8,7.3c1.1,2.8,1.7,5.9,1.7,9.2c0,3.3-0.6,6.4-1.7,9.2
			c-1.1,2.8-2.7,5.2-4.8,7.3c-2.1,2.1-4.5,3.6-7.3,4.8c-2.8,1.1-5.9,1.7-9.2,1.7c-3.3,0-6.4-0.6-9.3-1.7c-2.8-1.1-5.3-2.7-7.3-4.8
			c-2-2.1-3.6-4.5-4.7-7.3C288.4,76,287.8,72.9,287.8,69.6z M293.5,69.6c0,2.5,0.4,4.8,1.2,7c0.8,2.2,1.9,4.1,3.5,5.7
			s3.3,2.9,5.5,3.8s4.5,1.4,7.2,1.4s5.1-0.5,7.2-1.4s4-2.2,5.5-3.8s2.7-3.5,3.5-5.7c0.8-2.2,1.2-4.5,1.2-7c0-2.5-0.4-4.8-1.2-7
			c-0.8-2.2-1.9-4.1-3.5-5.7c-1.5-1.6-3.3-2.9-5.5-3.8c-2.1-0.9-4.5-1.4-7.2-1.4s-5.1,0.5-7.2,1.4c-2.1,0.9-4,2.2-5.5,3.8
			c-1.5,1.6-2.7,3.5-3.5,5.7C293.9,64.8,293.5,67.1,293.5,69.6z"/>
		<path class="st16" d="M344.2,30.4c0-1.2,0.4-2.2,1.2-3c0.8-0.8,1.8-1.2,3-1.2c1.2,0,2.2,0.4,3,1.2c0.8,0.8,1.2,1.8,1.2,3
			c0,1.2-0.4,2.2-1.2,3c-0.8,0.8-1.8,1.2-3,1.2c-1.2,0-2.2-0.4-3-1.2C344.6,32.6,344.2,31.6,344.2,30.4z M345.6,47.7h5.7v43.8h-5.7
			V47.7z"/>
		<path class="st16" d="M365.5,60c0-0.8,0-1.8-0.1-3c-0.1-1.2-0.1-2.4-0.1-3.6c0-1.2-0.1-2.3-0.1-3.4c-0.1-1-0.1-1.8-0.1-2.4h5.7
			c0.1,1.6,0.1,3.2,0.1,4.7c0,1.5,0.1,2.5,0.2,2.9h0.3c1.1-2.4,3-4.5,5.7-6.2c2.7-1.7,5.7-2.6,9.3-2.6c3.4,0,6.2,0.5,8.3,1.6
			c2.1,1.1,3.8,2.5,5.1,4.2c1.2,1.7,2.1,3.7,2.6,6c0.5,2.3,0.7,4.6,0.7,7v26h-5.7V65.7c0-1.8-0.2-3.5-0.5-5.2
			c-0.3-1.7-0.9-3.2-1.7-4.5c-0.8-1.3-1.9-2.4-3.3-3.2c-1.4-0.8-3.3-1.2-5.5-1.2c-2.1,0-4.1,0.4-5.9,1.1c-1.9,0.7-3.5,1.8-4.8,3.3
			c-1.4,1.5-2.4,3.3-3.2,5.6s-1.2,4.9-1.2,7.9v21.9h-5.7V60z"/>
	</g>
</g>
</svg>
