<?xml version="1.0" encoding="utf-8"?>
<!-- Generator: Adobe Illustrator 22.0.0, SVG Export Plug-In . SVG Version: 6.00 Build 0)  -->
<svg version="1.1" id="Layer_1" xmlns="http://www.w3.org/2000/svg" xmlns:xlink="http://www.w3.org/1999/xlink" x="0px" y="0px"
	 viewBox="0 0 220.2 113.7" style="enable-background:new 0 0 220.2 113.7;" xml:space="preserve">
<style type="text/css">
	.st0{fill:#F7931A;}
	.st1{fill:#4D4D4D;}
	.st2{fill:#66991A;}
	.st3{fill:#FCC103;}
	.st4{fill:#FFFFFF;}
	.st5{fill:#00206B;}
	.st6{fill:#FEFEFE;}
	.st7{fill:#7884D1;}
	.st8{fill:#9DA7DF;}
	.st9{fill:#7785D1;}
	.st10{fill:#5C67C6;}
	.st11{fill:#2E302F;}
	.st12{fill:#828486;}
	.st13{fill:#020707;}
	.st14{fill:#343535;}
	.st15{fill:#BEBEBE;}
	.st16{fill:#626264;}
	.st17{fill:#474D55;}
	.st18{clip-path:url(#SVGID_2_);fill:url(#SVGID_3_);}
	.st19{fill:#9C844E;}
	.st20{fill:#808084;}
	.st21{fill:#86868A;}
	.st22{fill:#9D854E;}
	.st23{fill:#7F7F83;}
	.st24{fill:#0D0D0D;}
	.st25{fill:#0C0C0C;}
	.st26{fill:#9D854F;}
	.st27{fill:#91856A;}
	.st28{fill:#828286;}
	.st29{fill:#A89262;}
	.st30{fill:#AB9768;}
	.st31{fill:#CACACC;}
	.st32{fill:#90846A;}
	.st33{fill:#A6946A;}
	.st34{fill:#818185;}
	.st35{fill:#EDE9E0;}
	.st36{fill:#F1EEE6;}
	.st37{fill:#EFEBE3;}
	.st38{fill:#F2F0E9;}
	.st39{fill:#F0EDE5;}
	.st40{fill:#F4F2EC;}
	.st41{fill:#F2EFE8;}
	.st42{fill:#F3F0EA;}
	.st43{fill:#F1EEE7;}
	.st44{fill:#F5F3EE;}
	.st45{fill:#F6F4EF;}
	.st46{fill:#F6F4F0;}
	.st47{fill:#F7F6F2;}
	.st48{fill:#F7F5F2;}
	.st49{fill:#F1F1F1;}
	.st50{fill:#F6F6F6;}
	.st51{fill:#EEEEEE;}
	.st52{fill:#141414;}
	.st53{fill:#E0E0E0;}
	.st54{fill:#838383;}
	.st55{fill:#101010;}
	.st56{fill:#FBFBFB;}
	.st57{fill:#B8B8B8;}
	.st58{fill:#494949;}
	.st59{fill:#E3E3E3;}
	.st60{fill:#D8D8D8;}
	.st61{fill:#777777;}
	.st62{fill:#F0F0F0;}
	.st63{fill:#858585;}
	.st64{fill:#EBEBEB;}
	.st65{fill:#565656;}
	.st66{fill:#353535;}
	.st67{fill:#EAEAEA;}
	.st68{fill:#878787;}
	.st69{fill:#C3C3C3;}
	.st70{fill:#888888;}
	.st71{fill:#848484;}
	.st72{fill:#F2F2F2;}
	.st73{fill:#EFEFEF;}
	.st74{fill:#F8F8F8;}
	.st75{fill:#111111;}
	.st76{fill:#2E2E2E;}
	.st77{fill:#DCDCDC;}
	.st78{fill:#C0C0C0;}
	.st79{fill:#DEDEDE;}
	.st80{fill:#202020;}
	.st81{fill:#E5E5E5;}
	.st82{fill:#E1E1E1;}
	.st83{fill:#404040;}
	.st84{fill:#3B3B3B;}
	.st85{fill:#6C6C6C;}
	.st86{fill:#CCCCCC;}
	.st87{fill:#B9B9B9;}
	.st88{fill:#C7C7C7;}
	.st89{fill:#FAFAFA;}
	.st90{fill:#868686;}
	.st91{fill:#C1C1C1;}
	.st92{fill:#484848;}
	.st93{fill:#393939;}
	.st94{fill:#B7B7B7;}
	.st95{fill:#1A1A1A;}
	.st96{fill:#AEAEAE;}
	.st97{fill:#1B1B1B;}
	.st98{fill:#0E0E0E;}
	.st99{fill:#C2C2C2;}
	.st100{fill:#C5C5C5;}
	.st101{fill:#919191;}
	.st102{fill:#E4E4E4;}
	.st103{fill:#E7E7E7;}
	.st104{fill:#EDEDED;}
	.st105{fill:#1F1F1F;}
	.st106{fill:#ECECEC;}
	.st107{fill:#4C4C4C;}
	.st108{fill:#D0D0D0;}
	.st109{fill:#7B7B7B;}
	.st110{fill:#C9C9C9;}
</style>
<g>
	<path class="st19" d="M77,38c5.8-2.2,6.7-3.3,6.3-9.5c-0.1-1.3,0.5-1.2,1.3-1.3c4.4-0.3,7.9,1.4,10.5,4.9c2.6,3.6,3,7.6,1.5,11.8
		c-0.8,2.3-1.9,0.5-2.7,0.1c-4-1.7-8.3,0.2-9.6,4.2c-1.3,3.8,1,8,5,9.1c3.2,0.8,6.5-0.7,8-4c0.7-1.7,1.3-1.4,2.5-0.7
		c6.9,4.5,6.9,15.7,0,20.2c-1.8,1.2-2,0.1-2.6-1.1c-2-3.7-6.1-4.9-9.6-2.9c-3.3,1.9-4.5,6.1-2.7,9.5c1.8,3.3,6,4.7,9.4,2.7
		c1.8-1,2.1-0.3,2.6,1c2.7,7.7-3.4,16.3-11.5,16.3c-1.9,0-2.1-0.8-1.9-2.5c0.6-5.8-4.5-9.7-9.5-7.5c-2.9,1.2-4.5,3.9-4.2,7.1
		c0.2,3,2.1,5.5,5.2,6c2.9,0.5,2.9,1.7,1.9,3.9c-1.8,3.9-5,5.9-8.8,7.3c-1.8,0-3.6,0-5.3,0c-1.7-0.7-3.6-0.8-5-2.2
		c-0.8-0.8-1.3-1.6-0.6-2.8c3.9-7,3.8-7.5-2.3-12.1c-0.2-0.3-0.2-0.5-0.3-0.8c1-3.3,3.5-5.1,6.4-6.4c1.2-0.6,2.6-0.9,4-1.1
		c7.8-0.8,11.8-5.5,13.1-12.9c0.1-0.4,0.1-0.8,0.2-1.2c0.5-2.5,0.2-5.1,0.3-7.7c0-0.8-0.3-1.3-1-1.7c-6.9-0.4-13.8-0.1-20.8-0.2
		c-0.5,0-1,0.2-1.4,0.5c-1,1-0.7,2.2-0.7,3.4c0,7.9,0,15.7,0,23.6c0,1.4,0.4,3-1.4,3.8c-1.1-1.1-0.8-2.6-0.9-3.9
		c0-7.9,0-15.8,0-23.7c0-3.2-0.4-3.7-3.5-3.7c-6.3,0-12.6-0.2-18.9,0.1c-0.5,4.3-0.5,8.7,0,12.9c0.6,5.4,5.3,9.8,10.9,10.3
		c3.3,0.3,6,1.6,8.7,3.2c1.6,1,2.3,2.6,2.9,4.3c0,0.3,0,0.6-0.1,0.9c-0.6,0.9-1.6,1.2-2.3,1.8c-2.6,2.2-3.2,5.6-1.5,8.5
		c0.7,1.2,2.6,2.1,1.6,3.8c-1,1.8-2.9,2.6-5,2.8c-0.5,0-1-0.1-1.4,0.3c-1.8,0-3.6,0-5.3,0c-3.8-1-6.9-2.9-8.5-6.6
		c-1.2-2.7-1.4-4.3,2.1-5.3c4.1-1.2,5.7-4.9,4.2-8.3c-1.2-2.8-4.1-4.3-7-3.7c-2.8,0.6-4.7,2.9-4.8,6c-0.1,4.3-0.9,4.9-5.1,4
		C12.2,97.2,7.7,90,9.4,82.9c0.7-2.8,1.6-3.2,4.7-2.3c3.9,1.2,7.4-0.7,8.2-4.5c0.7-3.1-1.6-6.5-5-7.3c-2.8-0.6-4.7,0.8-6.3,2.9
		c-2,2.6-2.9,2.6-5.4,0.5c-2.2-1.9-2.8-4.4-3.4-7c0-1.8,0-3.6,0-5.3c3-5.7,3.6-6.4,7-8.1c0.3,0.7,0.7,1.4,1,2.1
		c1.9,3.3,5.8,4.5,9.2,2.8c3.4-1.7,4.8-5.9,3.1-9.4C21,44,16.9,42.1,13.6,44c-2.8,1.6-3.1,0.1-3.6-1.8c-1.8-7.9,4.6-15.7,12.3-15
		c0.7,0.1,1.7-0.3,1.6,1.3c-0.6,6.1,0.7,7.7,6.7,9.4c-1.5,6.9-0.6,13.9-0.8,20.8c0,1.2,0.2,2.5,1.8,2.5c6.7,0,13.3,0.7,19.9-0.4
		c1-0.8,0.8-2,0.8-3c0-5.4,0-10.8,0-16.3c0-3-0.4-3.4-3.4-3.4c-4.6,0-9.3,0-13.9,0c-1.3,0-2.8,0.2-3.6-1.4c-0.2-1.6,1-1.6,1.9-1.6
		c13.5,0,27,0,40.5,0c1.4,0,2.3,0.5,1.9,2.1c-1,1-2.4,0.8-3.6,0.8c-4.4,0-8.9,0-13.3,0c-1.1,0-2.2-0.2-3.2,0.4
		c-0.9,0.7-0.9,1.7-0.9,2.7c0,5.7,0,11.4,0,17.1c0,1-0.1,2,0.9,2.6c3.1,0.8,6.3,0.4,9.4,0.3c4.2,0,8.4,0.5,12.6-0.3
		c0.7-0.5,0.9-1.2,0.9-2c-0.1-5.7,0.2-11.4-0.2-17.1C78.1,40.5,76.8,39.5,77,38z"/>
	<path class="st20" d="M215.9,71.7c-2.9,0-5.7,0-8.6,0c-0.7,0-1.7,0.4-1.9-0.8c-0.2-0.8,0.4-1.3,1.1-1.4c1.4-0.2,1.3-1.2,1.3-2.2
		c0-6.7,0-13.4,0-20.2c0-1.6-0.3-2.5-2.1-2.3c-0.7,0.1-1.6,0.2-1.7-1.1c0-1.2,0.9-1.1,1.6-1.2c1.5-0.2,3-0.1,4.4-0.6
		c3.2-1.1,3.5,0.4,3.4,3.1c-0.2,7.3,0,14.6-0.1,21.9c0,1.9,0.4,2.9,2.5,2.4C215.9,70.1,215.9,70.9,215.9,71.7z"/>
	<path class="st21" d="M54.4,4.1c-0.6,0-1.2,0-1.8,0l0,0.1c-0.1-1.3-0.9-2.2-1.8-3c1.8,0,3.6,0,5.3,0C55.6,2.1,55,3.1,54.4,4.1
		C54.4,4.1,54.4,4.1,54.4,4.1z"/>
	<path class="st22" d="M71.2,26c0,1.7,0,3,0,4.4c1,0.2,1.5-1.1,2.9-0.7c-0.7,2.1-2.1,3.2-4.2,3.3c-2,0.1-3.6-0.9-4.4-2.9
		c-0.3-0.6-0.1-1.2,0.4-1.6c0.5-0.3,1.3-0.3,1.5,0.3c0.4,0.9,0.6,2,1.6,0.6c0.7-1,0.4-2-0.5-2.9c-0.8-0.9-2.3,0.4-2.7-1
		c-0.3-0.9-0.5-1.9-1.6-2.4c-1.1,1.4-1.4,3.2-3.8,3.6c-1.9,0.4-1.2,2.5,0.1,3.8c0.8-0.1,0.5-0.7,0.6-1.1c0.3-1,0.9-1.4,1.8-0.9
		c0.7,0.4,0.6,1.2,0.3,1.8c-0.9,1.7-2.4,2.8-4.3,2.6c-2.1-0.2-3.6-1.2-4.2-3.4c1.2-0.4,1.7,0.7,2.7,0.8c0-1.3,0-2.6,0-4
		c-0.9-0.2-1.5,1.1-2.4,0.7c-0.5-1.1,1.1-1.6,0.8-2.7c-1.4,0-2.7,0-4.1,0c-0.3,1.1,1.3,1.5,0.9,2.6c-1.1,0.6-1.6-1-2.7-0.7
		c0,1.3,0,2.7,0,4.1c1,0.2,1.5-1.1,2.5-0.8c-0.4,2.1-1.6,3.3-3.5,3.4c-2,0.1-3.6-0.7-4.6-2.6c-0.3-0.7-0.4-1.4,0.3-1.8
		c0.5-0.3,1.2-0.3,1.5,0.3c0.3,0.6,0.2,2,1.4,0.8c1-1,0.8-2.7-0.4-3c-2.2-0.4-3.1-1.8-3.9-3.9c-1.4,1.7-2.1,3.6-4.4,4.1
		c-1.6,0.4-0.9,2.5,0.7,3.7c0.5-0.8,0.1-2.4,1.6-2.3c0.3,0,0.8,0.3,0.9,0.6c0.4,1.2-0.4,2.1-1.2,2.8c-2.5,2.3-5.6,1.4-7.4-2.1
		c1.1-0.6,1.7,0.6,2.7,0.8c0-1.5,0-2.8,0-4.1c-0.3,0-0.5,0.1-0.7,0.1c-3.4,0.8-4.6,2.5-2.7,5.8c0.4,0.7,0.6,1.7-0.6,1.8
		c-0.6,0.1-1.4-0.3-1.2-1.3c0.3-1.6-0.6-2.9-1-4.3c-1.4-5,0.2-10.1,4.3-13.3c3.9-3,8-3.1,12.9-0.2c4.4,2.6,8.8,2.7,13.1,0
		c4-2.5,8-3,12-0.4c4.2,2.7,5.9,6.7,5.7,11.6c-0.1,2.4-1.6,4.5-1.5,6.9c0,0.6-0.6,1.1-1.2,1c-0.7-0.1-0.9-0.7-0.6-1.4
		c0-0.1,0.1-0.2,0.1-0.3c0.2-1.5,1.8-3.2,0.9-4.4C74.6,27.1,72.6,27,71.2,26z"/>
	<path class="st23" d="M145.4,89.9c-2.6,5.8-5.3,11.6-8.2,17.9c-3-6.4-5.8-12.5-8.6-18.5c-0.2,0-0.3,0.1-0.5,0.1
		c-0.2,4.5-0.4,8.9-0.7,13.4c-0.1,1.3,0.3,2.1,1.8,2.1c0.9,0,2-0.1,1.7,1.3c-0.2,1.3-1.4,0.9-2.2,0.8c-2.1-0.3-4.1-0.3-6.2,0.1
		c-0.8,0.1-1.7,0.1-1.7-1.1c0-1,0.7-1.1,1.4-1.1c2,0.1,2.1-1.2,2.1-2.7c0.1-5.8-0.1-11.7,0.6-17.5c0.2-1.5,0-2.5-1.9-2.5
		c-0.9,0-2-0.1-1.8-1.4c0.2-1.4,1.4-0.8,2.2-0.8c7-0.2,6.9-0.2,9.9,6.1c1.7,3.6,3.4,7.3,5.4,11.5c2.3-5.1,4.5-9.6,6.3-14.2
		c1-2.7,2.4-4.1,5.4-3.5c0.6,0.1,1.2-0.1,1.8,0c1,0.2,2.8-0.8,3,0.8c0.2,1.8-1.6,1.3-2.7,1.4c-1.1,0.1-1.2,0.7-1.2,1.6
		c0.2,6.4,0.4,12.8,0.6,19.3c0,1.8,1.3,1.7,2.5,1.8c0.7,0.1,1.5,0,1.5,1c0,1.2-0.9,1.2-1.7,1.1c-3.3-0.4-6.5-0.3-9.8,0
		c-0.7,0.1-1.4,0-1.5-1c-0.1-1,0.6-1.2,1.3-1.1c2.3,0.1,2.4-1.3,2.3-3.1c-0.1-3.9,0-7.9,0-11.8C146.1,90,145.7,90,145.4,89.9z"/>
	<path class="st24" d="M52.7,62.2c-7.2,0-14.4,0-21.6,0c-1.8,0-2.4-0.5-2.4-2.3c0.1-6.1,0.1-12.2,0-18.3c0-1.7,0.6-2.8,1.9-3.7
		c0.2,0,0.4-0.1,0.6-0.1c6.7-0.4,13.4-0.1,20.1-0.2c1.1,0,1.6,0.4,1.6,1.5C52.8,46.8,53.3,54.5,52.7,62.2z"/>
	<path class="st23" d="M177.8,68c1.2-2.8,2-5.8,2-8.9c0-1.7,0.3-3.5-2.2-3.7c-0.8-0.1-0.7-0.8-0.8-1.4c0-0.7,0.5-1,1.1-1.2
		c4.1-1.5,7.6,1.1,6.5,5.3c-2.5,9.2-7.3,17.2-14.7,23.5c-2.7,2.3-6.4,1.9-8.2-0.4c-0.9-1.2-1-2.3,0-3.5c1.1-1.3,2.6-1.4,4.1-1.2
		c0.6,0.1,0.4,0.8,0.4,1.2c0.1,2.4,1.3,2.3,2.9,1.3c3.4-2.1,4.4-4.4,3.9-8.4c-0.6-3.9-1.6-7.7-2.8-11.5c-0.5-1.5-0.3-3.8-3-3.6
		c-0.4,0-0.6-0.5-0.6-0.9c0-0.6,0.4-0.8,0.9-0.9c1.5-0.3,3.1-0.6,4.6-1c1.3-0.3,1.5,0.8,1.8,1.5c1.5,4.1,2.7,8.2,3.2,12.6
		C177.2,67.2,176.6,68.4,177.8,68z"/>
	<path class="st23" d="M191,98.2c0,1.5,0,3,0,4.4c0,0.6,0,1.2,0.2,1.7c0.4,0.7,2.2,0.7,1.5,2.1c-0.7,1.4-2.1,0.3-3.2,0.4
		c-1.7,0.2-3.3,0.2-5,0.3c-0.7,0-1.5,0.1-1.7-0.8c-0.2-0.9,0.3-1.3,1.1-1.3c1.4-0.1,1.7-1.1,1.7-2.3c0-3,0-5.9,0-8.9
		c0-1.5-0.2-3.1-2.4-3c-2.1,0.1-3.8,1-4,3.1c-0.3,3,0,6.1-0.1,9.2c0,1.3,0.6,1.8,1.7,1.9c0.7,0.1,1,0.6,0.9,1.3
		c-0.1,0.7-0.7,1-1.3,0.9c-2.7-0.4-5.3-0.3-8,0c-0.5,0.1-1-0.2-1.1-0.7c-0.1-0.6-0.1-1.3,0.7-1.4c2.1-0.2,1.7-1.8,1.7-3.1
		c0-2.5,0-4.9,0-7.4c0-1.5,0.7-3.6-2.2-3.2c-0.6,0.1-0.7-0.5-0.7-1c0-0.5,0.2-1.2,0.8-1.1c2.5,0.7,5-2.8,7.4,0.2
		c0.4,0.5,1.1-0.3,1.6-0.5c1.8-0.7,3.5-1.1,5.5-0.7c3.4,0.7,4.7,2.1,4.9,5.6C191,95.2,191,96.7,191,98.2z"/>
	<path class="st25" d="M77,38c0.6,1,1.3,2,1.9,2.9c0.2,7.1,0.5,14.2-0.2,21.3c-8.1,0-16.1,0-24.2,0c-0.8-1.9-0.3-3.9-0.3-5.8
		c0-6.2-0.3-12.4,0.2-18.5c7.2-0.5,14.3-0.3,21.5-0.1C76.3,37.8,76.7,37.9,77,38z"/>
	<path class="st26" d="M148.1,24.5c1.2-0.3,2.1-0.7,3.1-0.8c3.3-0.4,5,1,5.4,4.2c0.3,1.9,0.3,3.7,0,5.6c-0.1,0.7-0.1,1.4,0.1,2
		c0.1,0.7,1.9,0.4,1.2,1.6c-0.5,0.9-1.6,0.4-2.4,0.3c-0.3,0-0.6-0.1-0.9-0.1c-3-0.1-2.8,0-2.1-2.4c0.7-2.6,0.5-5.3,0.1-7.9
		c-0.2-1.1-1-1.4-2-1.3c-1.3,0.1-2.7,0.7-2.4,2c0.5,2.8-1.9,6.2,1.6,8.6c0.5,0.3,0.1,1.2-0.7,1.2c-2,0-3.9,0-5.9,0
		c-0.4,0-0.8-0.1-0.9-0.6c-0.1-0.5,0.1-0.8,0.5-0.9c1.4-0.2,1.3-1.3,1.3-2.3c0-4.7,0-9.5,0-14.2c0-1.3-0.1-2.1-1.7-1.9
		c-0.5,0.1-1.1,0-1.1-0.7c0-0.6,0.5-0.8,1-0.9c1.6-0.2,3.1-0.4,4.7-0.6c1.4-0.2,1.1,0.8,1.1,1.5C148.2,19.5,148.1,21.9,148.1,24.5z"
		/>
	<path class="st20" d="M195.9,97.7c0-1.3,0.1-2.6,0-3.8c-0.1-1.2,0.6-3.2-2-2.3c-0.8,0.3-0.6-0.5-0.6-0.9c-0.1-0.8-0.2-1.7,0.9-1.9
		c1.9-0.2,2.1-1.2,1.8-2.8c-0.4-2.8,1.9-2.5,3.5-2.7c2.2-0.3,2.2,1.2,2,2.6c-0.3,1.9,0.3,2.8,2.3,2.6c1-0.1,1.7,0.3,1.8,1.4
		c0.1,1.5-0.9,1.6-2,1.4c-1.7-0.3-2.3,0.5-2.2,2.1c0.1,3,0.1,5.9,0,8.9c0,1.8,0.7,2.7,2.5,2c1-0.4,1.6-0.6,2,0.7
		c0.5,1.5-0.9,1.4-1.5,1.6c-5.3,2.2-8.5,0-8.6-5.6C195.9,99.9,195.9,98.8,195.9,97.7z"/>
	<path class="st26" d="M132.3,27.7c0,1.8,0,3.6,0,5.3c0,1.5-0.3,3.1,2,3.1c0.4,0,0.8,0.1,0.8,0.6c0,0.6-0.4,0.9-0.9,0.9
		c-2.7,0-5.3,0-8,0c-0.5,0-1-0.1-1.1-0.7c-0.1-0.7,0.4-0.8,0.9-0.8c1.9,0.1,2-1,2-2.5c-0.1-4,0-7.9,0-11.9c0-0.9,0.4-2.2-1.2-2.1
		c-1.4,0.1-3.1-0.7-4,1.1c-0.2,0.4-0.2,1-0.4,1.4c-0.2,0.6-0.3,1.5-1.2,1.4c-1.1-0.2-0.6-1-0.5-1.7c0.1-0.9,0.2-1.8,0.3-2.7
		c0.2-1.7-0.1-2.2,2.5-1.8c4.7,0.8,9.7,1.3,14.5-0.4c0.5-0.2,0.9-0.5,1.3-0.1c0.6,0.5,0.6,6,0,6.3c-1.4,0.7-1.5-0.5-1.5-1.3
		c0-1.7-0.6-2.3-2.4-2.4c-2.5-0.1-3.3,0.7-3.1,3.2C132.4,24.3,132.3,26,132.3,27.7z"/>
	<path class="st23" d="M166.6,96.2c0,1.9,0,3.8,0,5.6c0,1.3-0.4,2.9,1.7,3.1c0.8,0.1,0.7,0.8,0.6,1.4c-0.2,0.8-0.8,0.8-1.4,0.7
		c-2.4-0.3-4.7-0.4-7.1,0c-0.8,0.1-1.7,0.1-1.8-1c-0.2-1,0.5-1.2,1.3-1.3c1.4-0.2,1.4-1.2,1.4-2.2c0-2.9,0-5.7,0-8.6
		c0-1.5,0.4-3.2-2.1-2.8c-0.6,0.1-0.8-0.4-0.8-1c0-0.7,0.2-1.1,1-1.2c2.1-0.3,4.3-0.6,6.4-1c1.2-0.2,0.9,0.7,0.9,1.3
		C166.6,91.7,166.6,93.9,166.6,96.2z"/>
	<path class="st20" d="M50.2,11.4c0-2.1,1.3-3.3,3.5-3.3c2,0,3.3,1.3,3.4,3.3c0,2.1-1.2,3.6-3.4,3.6C51.6,15,50.2,13.9,50.2,11.4z"
		/>
	<path class="st20" d="M101.6,50.4c-2.3-0.3-3.6-1.6-3.4-3.8c0.1-2,1.5-3.4,3.5-3.3c2.1,0.1,3.5,1.4,3.3,3.7
		C104.8,49.3,103.5,50.3,101.6,50.4z"/>
	<path class="st20" d="M5.1,50.4c-2.3-0.3-3.6-1.6-3.4-3.8c0.1-2,1.5-3.4,3.5-3.3c2.1,0.1,3.5,1.4,3.3,3.7
		C8.4,49.3,7.1,50.3,5.1,50.4z"/>
	<path class="st20" d="M79.9,103.5c0.3-2,1.6-3.3,3.5-3.2c2.1,0.1,3.5,1.4,3.4,3.7c-0.1,2.1-1.4,3.5-3.7,3.3
		C80.9,107.2,79.9,105.7,79.9,103.5z"/>
	<path class="st27" d="M52.7,62.2c0-7.4,0-14.7,0.1-22.1c0-1.9-0.8-2.2-2.4-2.2c-6.4,0-12.8,0-19.2-0.1c0.1-0.3,0.2-0.7,0.2-1
		c2.3,1.1,4.7,0.5,7,0.5c4.1,0.1,8.3,0,12.4,0c1.2,0,2.4-0.1,2.4,1.7c0,7.4,0,14.8-0.1,22.2C53.2,61.5,52.9,61.9,52.7,62.2z"/>
	<path class="st27" d="M75.9,37.8c-7.1,0.1-14.3,0.1-21.4,0.2c-0.2-0.1-0.2-0.3-0.2-0.4c0.1-0.1,0.1-0.2,0.2-0.2
		c7.1,0,14.2,0,21.3,0C75.9,37.4,75.9,37.6,75.9,37.8z"/>
	<path class="st21" d="M52.7,4.1c0.3,2.1-1.4,2.4-2.9,3.3c0-1.7,0-3.1,0-4.6C50.8,3.2,51.8,3.7,52.7,4.1C52.7,4.1,52.7,4.1,52.7,4.1
		z"/>
	<path class="st28" d="M54.4,4.1c0.9-0.3,1.8-0.6,2.9-1c0,1.4,0,2.7,0,4.1C55.7,6.8,54.9,5.6,54.4,4.1C54.4,4.1,54.4,4.1,54.4,4.1z"
		/>
	<path class="st29" d="M44.2,33.1c-0.1,0.6-0.4,1.1-1.1,1.2c-0.9,0.1-1.2-0.5-1.2-1.2c0-0.7,0.4-1.1,1.1-1
		C43.7,32,44,32.5,44.2,33.1z"/>
	<path class="st29" d="M64.5,34.3c-0.9-0.1-1.2-0.5-1.3-1.1c0-0.6,0.2-1.2,1-1.2c0.8,0,1.3,0.4,1.3,1.2C65.5,33.9,65,34.2,64.5,34.3
		z"/>
	<path class="st30" d="M53.7,32c0.5,0.2,1.2,0.4,1.2,1c0,0.7-0.7,1-1.2,1c-0.6,0-1.4-0.3-1.4-1.1C52.4,32.4,53.1,32.2,53.7,32z"/>
	<path class="st31" d="M177.8,68c-0.2,0.3-0.5,0.8-0.6,0.8c-0.8-0.4-0.4-1.2-0.4-1.9C177.1,67.3,177.4,67.7,177.8,68z"/>
	<path class="st25" d="M78.9,73.5c-1.1,8.7-5,12.9-13.6,14.4c-4.5,0.8-8.3,2.5-10.2,6.9c-0.7,0.1-0.8-0.3-0.8-0.9
		c0.1-10.2-0.3-20.3,0.2-30.5c8.1-0.5,16.2-0.3,24.4-0.1C79.4,66.6,79.1,70.1,78.9,73.5z"/>
	<path class="st24" d="M52.2,94.7c-2.6-4.6-6.5-6.5-11.9-6.5c-5.2,0-10.9-6.6-11.3-12.3c-0.2-4.1-0.1-8.3-0.1-12.4
		c3.9-0.7,7.8-0.2,11.8-0.3c3.3-0.1,6.5,0.1,9.8,0c1.8-0.1,2.6,0.3,2.6,2.4c-0.1,9.2,0,18.3-0.1,27.5C52.9,93.6,53.5,94.6,52.2,94.7
		z"/>
	<path class="st27" d="M52.2,94.7c1.1-0.6,0.6-1.6,0.6-2.4c0-8.8,0-17.5,0.1-26.3c0-2.1-0.6-2.7-2.7-2.6c-7.1,0.1-14.2,0.1-21.3,0.1
		c0.1-1.2,1-0.6,1.5-0.6c6.7,0,13.5,0,20.2-0.1c2.1,0,2.7,0.6,2.7,2.7c-0.1,9.8,0,19.6,0,29.4c0.2,0.1,0.3,0.2,0.2,0.3
		c-0.1,0.1-0.1,0.2-0.2,0.2c-0.4,0-0.8,0-1.2,0C52.1,95.1,52.1,94.9,52.2,94.7z"/>
	<path class="st27" d="M53.3,95.3c0-0.2,0-0.3,0-0.5c1-0.9,0.6-2,0.6-3.1c0-8.6,0-17.3,0-25.9c0-1-0.4-2.2,0.6-3
		c0.2,0.1,0.3,0.3,0.2,0.4c-0.1,0.1-0.1,0.2-0.2,0.2c0,9.6,0,19.3,0,28.9c0,0.8-0.5,1.8,0.5,2.4c0,0.2,0,0.4,0,0.6
		C54.5,95.4,53.9,95.3,53.3,95.3z"/>
	<path class="st32" d="M54.5,37.3c0,0.2,0,0.4,0,0.7c0,8.1,0,16.2,0,24.2c-0.7-0.4-0.7-1.1-0.7-1.8c0-7.1,0-14.1,0-21.2
		C53.9,38.5,53.8,37.8,54.5,37.3z"/>
	<path class="st32" d="M54.5,63.5c0-0.2,0-0.4,0-0.6c8.1,0,16.2,0,24.3,0C79,63,79,63.1,79,63.3c-0.1,0.1-0.1,0.2-0.2,0.2
		C70.7,63.5,62.6,63.5,54.5,63.5z"/>
	<path class="st33" d="M78.7,62.2c0.1-7.1,0.1-14.2,0.2-21.3c1,1.9,0.4,4,0.5,6c0.1,4.2,0,8.4,0,12.6C79.4,60.4,79.7,61.5,78.7,62.2
		z"/>
	<path class="st33" d="M78.8,63.5c0-0.2,0-0.4,0-0.6c1,3.5,0.9,7.1,0.1,10.6C78.8,70.1,78.8,66.8,78.8,63.5z"/>
	<path class="st34" d="M24.3,107.4c-2.2-0.1-3.5-1.2-3.6-3.5c0-2,1.2-3.5,3.2-3.6c2.1-0.1,3.6,1.1,3.8,3.3
		C27.7,105.9,26.5,107.2,24.3,107.4z"/>
	<path class="st35" d="M61.1,18c0,0.7-0.4,1.1-1,1.1c-0.7,0-1.3-0.4-1.3-1.2c0-0.6,0.4-1.1,1.1-1.1C60.6,16.8,61,17.2,61.1,18z"/>
	<path class="st36" d="M69.8,15.2c0.1,1-0.3,1.5-0.9,1.6c-0.8,0.1-1.4-0.3-1.4-1.1c0-0.7,0.5-1,1.1-1.1
		C69.4,14.4,69.7,14.9,69.8,15.2z"/>
	<path class="st37" d="M37.3,16.6c0-1,0-2.1,1.4-2c0.8,0,1.2,0.7,1,1.4C39.2,17.4,38.2,16.7,37.3,16.6L37.3,16.6z"/>
	<path class="st38" d="M54.9,22.5c-0.2,0.6-0.5,1.1-1.2,1.1c-0.9,0-1.2-0.6-1.1-1.3c0.1-0.6,0.5-1,1.2-0.9
		C54.5,21.5,54.8,21.9,54.9,22.5z"/>
	<path class="st39" d="M32.5,23.4c-0.8-0.1-1.2-0.5-1.2-1.2c0-0.7,0.4-1.2,1.1-1.1c0.8,0,1.3,0.4,1.3,1.3
		C33.5,23,32.9,23.2,32.5,23.4z"/>
	<path class="st40" d="M75.2,24.2c0.7,0,1.2,0.3,1.2,1c0,0.8-0.4,1.3-1.2,1.3c-0.6,0-1-0.5-1-1.2C74.1,24.6,74.5,24.3,75.2,24.2z"/>
	<path class="st41" d="M53.7,18.3c0.8,0.2,1.2,0.5,1.2,1.2c-0.1,0.8-0.6,1.2-1.4,1.1c-0.7-0.1-0.9-0.7-0.9-1.3
		C52.7,18.6,53.1,18.3,53.7,18.3z"/>
	<path class="st42" d="M34.9,18.3c0,0.9,0.2,2-1.2,2.2c-0.5,0-1-0.3-1.1-0.8C32.4,17.7,33.9,18.3,34.9,18.3L34.9,18.3z"/>
	<path class="st42" d="M44.6,15.3c0.7,0,1.1,0.4,1.1,1.1c0,0.6-0.3,1.2-0.9,1.2c-0.8,0.1-1.3-0.4-1.3-1.2
		C43.4,15.8,43.9,15.4,44.6,15.3z"/>
	<path class="st41" d="M34.9,18.3c-0.4-2.3,0.1-3.2,2.4-1.8c0,0,0,0,0,0C37.1,17.9,36.2,18.4,34.9,18.3
		C34.9,18.3,34.9,18.3,34.9,18.3z"/>
	<path class="st38" d="M72.7,17.1c-0.2,0.6-0.5,1.1-1.2,1.1c-0.9,0-1.1-0.6-1.1-1.4c0.1-0.7,0.5-1,1.2-0.9
		C72.3,16.1,72.6,16.5,72.7,17.1z"/>
	<path class="st43" d="M47.5,16.8c0.6,0.2,1,0.5,1,1.2c0,0.7-0.5,1-1.1,1c-0.8,0-1.3-0.4-1.1-1.3C46.3,17.1,46.9,16.8,47.5,16.8z"/>
	<path class="st44" d="M51.5,19c0,0.7-0.3,1.1-1,1.1c-0.7,0-1.1-0.4-1.2-1c-0.1-0.8,0.4-1.3,1.2-1.3C51.1,17.9,51.5,18.4,51.5,19z"
		/>
	<path class="st45" d="M57,17.9c0.6,0.2,1,0.5,1,1.2c0,0.7-0.4,1.1-1,1.1c-0.8,0-1.3-0.4-1.2-1.2C55.8,18.2,56.3,17.9,57,17.9z"/>
	<path class="st46" d="M65.5,16.6c-0.7-0.1-1-0.5-1-1.2c0.1-0.6,0.5-1.1,1.1-1.1c0.8,0,1.3,0.6,1.1,1.3
		C66.7,16.3,66.2,16.6,65.5,16.6z"/>
	<path class="st42" d="M74.7,19.3c0,0.7-0.3,1.2-1,1.2c-0.7,0-1.1-0.4-1.2-1c-0.1-0.7,0.4-1.1,1-1.2C74.2,18.2,74.6,18.5,74.7,19.3z
		"/>
	<path class="st47" d="M63.9,16.6c-0.2,0.6-0.5,1-1.2,1c-0.8-0.1-1.2-0.7-1-1.4c0.1-0.7,0.6-1,1.3-0.8
		C63.5,15.5,63.9,15.9,63.9,16.6z"/>
	<path class="st46" d="M76.1,22c0,0.7-0.3,1.1-0.9,1.2c-0.8,0.2-1.3-0.4-1.3-1.1c0-0.6,0.4-1.1,1.1-1.1C75.5,21,75.9,21.4,76.1,22z"
		/>
	<path class="st40" d="M32.2,26.5c-0.8-0.1-1.3-0.5-1.3-1.1c0-0.8,0.6-1.2,1.3-1.1c0.7,0,0.9,0.5,0.9,1.2
		C33.1,26.1,32.6,26.3,32.2,26.5z"/>
	<path class="st48" d="M42.7,15.4c0,0.9-0.4,1.2-1.1,1.2c-0.7,0-1.1-0.5-1-1.1c0-0.6,0.4-1.1,1.1-1.1C42.4,14.4,42.6,15,42.7,15.4z"
		/>
	<path class="st20" d="M147.6,72.2c-4.9-2.8-6.8-8-10.1-12.5c4.7-2.8,6.3-5.5,5.5-9c-0.8-3.6-3.7-5.9-8.8-6.1
		c-4.1-0.1-8.3,0.3-12.4,0.5c-0.9,0-1.6,0.3-1.5,1.4c0.1,1,1,0.9,1.6,0.8c2.6-0.4,2.8,1,2.8,3.1c-0.1,5.4-0.1,10.9,0,16.3
		c0,1.7-0.1,2.9-2.2,2.9c-0.7,0-1.4,0.2-1.4,1.2c0,1.3,1,0.9,1.8,0.9c3.3,0,6.5,0,9.8,0c0.7,0,1.5,0.2,1.7-0.8
		c0.2-1.1-0.7-1.2-1.5-1.4c-0.8-0.3-2.3,0.4-2.3-1.1c-0.1-2.8,0-5.6,0-8.5c1.6,0.3,1.8,1.4,2.3,2.2c1.7,2.6,3.3,5.4,5.4,7.8
		c2.2,2.6,5,3.8,8.2,4.2c0.7,0.1,1.4,0.2,1.7-0.7C148.2,72.9,148.1,72.5,147.6,72.2z M136.9,53.5c-0.3,2-1.5,3.4-3.5,3.9
		c-1.8,0.4-3.4,0.4-3-2.3c0.1-1,0-2,0-2.9c0-0.6-0.1-1.2,0-1.8c0.2-1.1-0.7-2.6,0.6-3.2c1.4-0.6,2.9-0.2,4.2,0.7
		C137.2,49.3,137.2,51.4,136.9,53.5z"/>
	<path class="st49" d="M49.2,42.6c1.2,0.6,2.1,1.2,1.6,2.8c-0.4,1.1-1.3,0.6-2,0.7c-0.4,0-0.9-0.1-0.8-0.6c0.6-2.1-0.9-1.5-1.6-1.1
		c-2.2,1.2-4.2,3-6.4,0.2c-0.1-0.2-0.9,0.1-1.4,0.2c-1.5,0.4-3,0.9-4.6,1.1c-0.8,0.1-2.3,0.9-2.4-0.5c-0.1-1.2,1.3-0.5,2-0.7
		c1.4-0.4,2.5-1.5,2.1-3.3c1.3-0.3,2.5,0.3,3.8,0.3c2.2,0.1,4.5,0,6.7,0.1C47.2,41.9,48.3,41.7,49.2,42.6z"/>
	<path class="st50" d="M34.3,58.6c-0.1-0.9,0.1-1.5,1.2-1.1c0.7-0.8,0.6-1.5,0.1-2.3c-0.3-0.4-1.6-0.8-0.2-1.1
		c1.3-0.3,2.8-0.1,4.2-0.1c0.3,1.8,1.7,1.4,2.9,1.6c2.2,0.3,4.8-1,6.6,1.2c0.4,0.1,0.8,0.2,1.2,0.2c0.4,0.9,0.7,1.9-0.4,2.4
		c-0.5,0.2-1.4,0.4-1.3-0.8l-0.1-0.1c-0.6-1.4-1.8-0.9-2.5-0.3c-0.5,0.4-1.1,0.7-1.6,1.1c-1.2-0.3-2.8,2-3.5-0.6
		c0.2-0.2,0.4-0.4,0.7-0.4c-0.2-0.3-0.5-0.1-0.7-0.1c-2,0.4-3.9,0.8-5.9,1.2C34.3,59.5,34.1,59.2,34.3,58.6z"/>
	<path class="st51" d="M50.3,52.7c-0.8,0.1-1.9,0.7-2.3-0.3c-0.4-1,0.9-0.6,1.3-1.1c-1.8-0.9-3.3,0.1-4.7,1c-0.4,0.2-0.8,0-1.1-0.2
		c-1.2-0.9-2.5-0.9-3.9-0.5c-1.1,0.2-2.3,0.4-3.4,0.7c-0.8,0.4-1.4,0.3-1.6-0.8c0.1-0.8,0.9-1.2,1.3-1.7c0.9-1.1-0.1-1.2-0.5-1.7
		c-0.2-0.2-0.6-0.5-0.6-0.6c0.7-1.1,3.9-0.7,4.7,0.5c0,0.5,0.2,0.9,0.8,1c2.3,0.1,4.7-0.1,7,0.1C49.9,49.3,50.6,50.2,50.3,52.7z"/>
	<path class="st52" d="M49.2,42.6c-3.6-0.3-7.3,0.7-10.8-0.6C37,42,39.9,40.8,38.2,41c-1.1,0.1-2.2-0.5-3.4-0.1
		c-0.5-0.7-0.3-1.2,0.4-1.2c1.9,0,3.9-0.5,5.7,0.6c0.2,0.4,0.5,0.8,1,0.9c2.6,0.7,5.3-0.5,7.8,0.8C49.6,42.3,49.4,42.4,49.2,42.6z"
		/>
	<path class="st53" d="M50.3,52.7c0.2-2-0.8-2.9-2.7-2.9c-2.2,0-4.3,0-6.5,0c-0.9,0-2,0.4-2.6-0.7c3.1-1.3,6.3-0.1,9.4-0.6
		c0.3-0.1,0.5-0.2,0.7-0.4C51,49.9,51.1,50.4,50.3,52.7z"/>
	<path class="st52" d="M49.1,56.8c-2.7-1-5.5-0.5-8.3-0.4c-2.6,0.1-2.5-0.7-1.3-2.4c0.5,0,0.9,0,1.4,0c0.1,0.3,0.1,0.7,0.4,1
		c2.6,0.6,5.3-0.5,7.7,0.7C49.8,56,49.2,56.4,49.1,56.8z"/>
	<path class="st54" d="M49.1,55.7c-2.9,0-5.9-0.1-8.8-0.1c0,0-0.1-0.1-0.1-0.2c0-0.1,0.1-0.2,0.1-0.3c0.8-0.8,1.9-0.4,2.8-0.5
		c1.6,0,3.1-0.1,4.7-0.1C48.6,54.5,49.2,54.7,49.1,55.7z"/>
	<path class="st55" d="M48.6,48.5c0.7,0.4,0.5,0.8-0.1,0.8c-3.3,0-6.6,0.4-9.9-0.3c0.2-0.5,0.3-1.1,1.1-1.1c0.1,0,0.2,0,0.3,0
		C42.8,48.3,45.7,48.1,48.6,48.5z"/>
	<path class="st56" d="M34.8,40.9c1.4-1.6,3.1-0.3,5.1-0.8c-0.7,0.9-1.1,1.5-1.5,2c-1.1,0.7-1.9-0.2-2.7-0.6
		C35.4,41.3,35.1,41.1,34.8,40.9z"/>
	<path class="st57" d="M48.6,48.5c-2.9-0.1-5.8,0.8-8.7-0.5c2.9-1,5.8,0.5,8.7,0.1C48.5,48.2,48.5,48.3,48.6,48.5z"/>
	<path class="st58" d="M49.7,42.1c-3.1-0.4-6.4,0.7-9.4-0.7c1-0.7,2.1-0.3,3.2-0.2c2,0.1,4-0.3,5.9,0.3
		C49.5,41.7,49.6,41.9,49.7,42.1z"/>
	<path class="st59" d="M34,43.8c-1.2-1.3-2.4-1.7-2.4-3c0-0.5,0.7-0.7,1.2-0.5C34.2,40.8,33.8,42,34,43.8z"/>
	<path class="st60" d="M35,51c-0.2,0.9,0.4,1.1,1.1,1.2c-1.5,0.9-3.1,0.8-4.7,0.5c-0.3-2.5,3.3,0.3,2.8-2.3l-0.1,0.1
		c0.2,0,0.4,0.1,0.6,0.1c0.2,0,0.3,0.1,0.2,0.2C35.1,50.9,35.1,51,35,51z"/>
	<path class="st6" d="M34.3,50.4c-0.7-0.2-1.5-0.4-2-1.1c-0.3-0.4-1-0.7-0.9-1.4c0-0.2,0.3-0.4,0.5-0.5c0.8-0.2,1.4,0.2,1.7,0.9
		C33.9,49,34.1,49.7,34.3,50.4C34.3,50.5,34.3,50.4,34.3,50.4z"/>
	<path class="st61" d="M44.4,59.3c1.1-1.7,2.7-2,4.6-1.7c0.4,0.1,0.8,0.3,0.5,0.7c-0.2,0.2-0.7,0.2-1,0.3
		C46.7,56.8,45.9,60.1,44.4,59.3z"/>
	<path class="st50" d="M33.7,57.3c-1-1.2-2.2-1.5-2.1-2.8c0-0.5,0.7-0.7,1.2-0.5C34.1,54.5,33.8,55.6,33.7,57.3z"/>
	<path class="st62" d="M34.3,58.6c0.2,0.2,0.5,0.5,0.7,0.7c-1.1,0.8-2.3,0.6-3.9,0.1C32.2,58.4,33.3,58.8,34.3,58.6z"/>
	<path class="st63" d="M49.4,41.5c-2.1,0-4.2-0.1-6.3-0.1c0-0.1,0-0.2,0.1-0.4C45.2,41.1,47.4,40.2,49.4,41.5z"/>
	<path class="st62" d="M48.5,58.7c1.6,0.7,1.7,0.7,1.8-1.6c1,0.7,0.7,1.8,0.2,2.5c-0.5,0.6-1.5,0.4-2.2,0.2
		C47.7,59.4,47.9,58.9,48.5,58.7z"/>
	<path class="st64" d="M35,51c0-0.1-0.1-0.3-0.1-0.4c1.4-0.6,0.7-1.6,0.5-2.5c0.7,0.3,1.4,0.6,2.1,0.9C36.2,48.9,36.3,50.7,35,51z"
		/>
	<path class="st65" d="M40.8,58.1c0.8-1.2,1.8-0.5,2.8-0.6c-0.5,1.9-1.9,0.7-2.7,1.2C40.8,58.5,40.8,58.3,40.8,58.1z"/>
	<path class="st66" d="M39.6,51.5c1.3-0.4,2.6-1.7,4.1-0.2c-0.2,0.8-0.9,0.8-1.5,0.8c-0.5,0-0.9-0.2-1.3-0.5
		C40.5,51.5,40,51.5,39.6,51.5z"/>
	<path class="st59" d="M43.1,54.6c-0.8,0.9-1.9,0.4-2.8,0.5c0.2-0.4,0.4-0.8,0.7-1.1C41.8,53.7,42.5,54,43.1,54.6z"/>
	<path class="st67" d="M43.1,41c0,0.1-0.1,0.2-0.1,0.4c-0.9,0-1.9,0-2.8,0c0.2-0.4,0.4-0.7,0.6-1.1C41.8,40,42.5,40.3,43.1,41z"/>
	<path class="st62" d="M35.5,55.1c2,0.5,0.7,1.6,0.4,2.5c0,0-0.2,0.1-0.3,0c-0.1,0-0.1-0.1-0.2-0.2C35.9,56.7,35.7,55.9,35.5,55.1z"
		/>
	<path class="st50" d="M40.9,51.6c0.4,0,0.8,0.1,1.1,0.1c0.3,0.4,1.4-0.1,1.2,1C42.3,52.5,40.7,53.9,40.9,51.6z"/>
	<path class="st64" d="M43.2,52.6c-0.4-0.3-0.8-0.7-1.2-1c0.6,0.1,1.2,0.1,1.7-0.4c0.3,0.3,0.6,0.6,0.9,0.9
		C44.2,52.6,43.7,52.7,43.2,52.6z"/>
	<path class="st68" d="M56.9,40.9c2.5-1.4,5.1-0.4,7.7-0.5c3.6-0.1,7.2-0.3,10.8,0.2c0.1,0.3,0.1,0.7,0,1c-0.2,0.5-0.6,0.8-1.2,0.9
		c-5.1-0.3-10.2,0-15.3-0.2c-0.3,0-0.7-0.1-1-0.2C57.4,41.8,57.1,41.3,56.9,40.9z"/>
	<path class="st69" d="M75.7,59.3c-0.1,0.2-0.2,0.5-0.2,0.5c-6-1.1-12.1-0.1-18.2-0.6c-0.2,0-0.3-0.4-0.5-0.6
		c0.3-0.2,0.6-0.4,0.9-0.6c5.3-0.5,10.7-0.2,16-0.2c0.4,0,0.7,0.1,1,0.2C75.3,58.3,75.6,58.7,75.7,59.3z"/>
	<path class="st58" d="M75.2,58.6c-0.2,0-0.4-0.1-0.6-0.1c-0.3-0.3-0.5-0.6-0.6-0.9c-0.4-4.6-0.2-9.1-0.2-13.7
		c0-0.7,0.2-1.3,0.7-1.9c0.2-0.2,0.4-0.4,0.6-0.5c0.9,2.5-0.3,5.2,0.7,7.7c0,0.3,0,0.6,0.1,0.9C74.9,52.9,76.1,55.9,75.2,58.6z"/>
	<path class="st70" d="M57.5,58.6c-0.2,0-0.5,0.1-0.7,0.1c0-3.2,0-6.3-0.1-9.5c0.4-0.2,0.7-0.1,1,0.2C58.5,52.4,58.7,55.5,57.5,58.6
		z"/>
	<path class="st71" d="M75.2,58.6c0.4-2.8-0.8-5.8,0.7-8.5c-0.1,3-0.1,6.1-0.2,9.1C75.6,59.1,75.4,58.9,75.2,58.6z"/>
	<path class="st71" d="M75.9,49.2c-1.4-2.5-0.2-5.1-0.7-7.7c0-0.3,0.1-0.7,0.1-1C76.4,43.4,75.5,46.3,75.9,49.2z"/>
	<path class="st71" d="M57.4,49.2c-0.2,0-0.4,0-0.6,0c0-2.8,0.1-5.5,0.1-8.3c0.2,0.2,0.4,0.5,0.6,0.7C58.6,44.1,58.8,46.7,57.4,49.2
		z"/>
	<path class="st20" d="M156,52.7c-6.1,0-9.6,3.4-9.6,9.5c0,6.3,3.5,10,9.5,10c5.8,0,9.6-3.8,9.6-9.7C165.5,56.5,161.8,52.8,156,52.7
		z M158.8,67.5c-0.4,1.1-0.9,1.9-2.2,2c-1.4,0-2.6-0.2-3.2-1.5c-1.8-3.8-1.8-7.6-0.1-11.4c0.9-2,3.8-1.7,5,0.4
		c1.1,1.8,1.3,3.9,1.3,6.1C159.7,64.4,159.3,66,158.8,67.5z"/>
	<path class="st20" d="M202.2,69.1c-0.8-0.3-0.7-1.1-0.7-1.8c0-1.5,0-3,0-4.4c0-1.2,0-2.4,0-3.5c-0.1-4.8-2.5-7-7.3-6.6
		c-2,0.1-3.8,0.8-5.5,2c-1.1,0.8-2,1.7-1.6,3.2c0.2,0.7,0.9,0.8,1.4,0.7c1.3-0.4,3.4,0.5,3.7-1.9c0.2-1.6,1.2-1.5,2.3-1.5
		c1.5,0,1.3,1.1,1.4,2.1c0.3,2.9,0.2,5.5-3.8,5.6c-1.1,0-2.2,0.8-3.3,1.2c-1.9,0.6-2.4,2.2-2.3,4c0.1,1.8,0.9,3.1,2.8,3.8
		c2,0.7,3.9,0.4,5.7-0.6c0.4-0.2,1-1.3,1.4-0.6c1.6,2.7,3.7,0.8,5.5,0.8c0.7,0,1.7,0,2-1C204,69.2,202.8,69.4,202.2,69.1z
		 M193.5,69.1c-1.4,0.1-1.6-1.3-1.7-2.3c-0.2-2.1,1.5-2.2,2.9-2.5c1.7-0.3,0.7,1.2,1,1.5C196.1,67.9,195.1,69,193.5,69.1z"/>
	<path class="st26" d="M168.8,35.5c-0.5,0.1-1,0.3-1.4,0.3c-2.2,0.3-3.5-1.2-3.8-3.8c-0.3-2.7,1.7-1.8,2.9-1.9
		c0.8-0.1,1.6-0.1,2.4,0c2.5,0.3,2.8-1,2.3-3c-0.4-1.4-1.3-2.4-2.7-2.9c-2.7-0.9-5.3-0.7-7.3,1.5c-2.2,2.4-2.4,5.3-1.3,8.3
		c1,2.7,3.3,3.8,6.7,3.9c0.5,0.1,1.7-0.3,2.8-0.7c0.8-0.4,2.3-0.6,1.8-1.8C170.7,34.2,169.6,35.4,168.8,35.5z M165.9,25.6
		c1.1,0.1,1.6,1.1,1.3,1.9c-0.7,1.8-2.1,0.6-3.4,0.8C164.1,26.9,164,25.4,165.9,25.6z"/>
	<path class="st72" d="M56.8,71.1c0.2-1,1.1-0.6,1.6-0.6c1.1,0.1,1.3-0.5,1.3-1.4c0.5-0.5,0.8-1.2,1.4-1.6c1.2-0.9,2.4-0.3,3.7-0.3
		c2.3,0.1,4.5,0,6.8,0c1.1,0,2.2,0,3,0.9c1.3,0.5,1.6,1.6,1.2,2.8c-0.2,1-1.1,0.6-1.7,0.6c-0.5,0-0.9-0.1-0.9-0.8
		c0-1.9-1.2-1.3-1.8-0.7c-1.1,1.1-2.5,1-3.8,1.4c-1.8,0.6-1.8-0.5-1.4-1.7c0.1,0,0.2-0.1,0.2-0.1c0,0,0.2-0.1,0,0
		c-0.3,0.2,0.1-0.1-0.2,0.1c-2.1,0.4-4.3,0.9-6.4,1.3C58.9,71.5,57.8,71.6,56.8,71.1z"/>
	<path class="st73" d="M74.6,74.7c0.4,0.8,1.9,1,1.1,2.3c-0.8,0.4-1.3-0.1-1.8-0.5c-1.8-1-2.7,1.3-4.3,1.2c-0.4,0.1-0.8,0-1.1-0.2
		c-1-0.8-2.2-0.6-3.4-0.6c-1.3,0.2-2.7,0.5-4,0.7c-0.9,0.3-0.9-0.3-1-0.9c0.6-1.5-0.5-2.9-0.1-4.4c1.7,0,3.4,0,5.1,0
		c0.5,1-0.2,1.4-0.8,1.8c-0.2,0-0.5,0.2-0.4,0.3c0.3,0.3-0.2,0,0.2-0.1c0.4-0.1,0.7-0.3,1.1-0.4C68.2,74.2,71.5,73.6,74.6,74.7z"/>
	<path class="st74" d="M66.3,83.5c-1.1-0.2-0.9,1.2-1.7,1.3c-0.5,0.3-1-0.1-1.5-0.1c-0.9-0.3-1.8,0.3-2.8,0
		c-1.8-0.1-0.6-1.6-1.1-2.3c0.1-0.1,0.1-0.2,0.2-0.3c1-0.7-0.2-1.8,0.5-2.5c1.7,0.2,3.6-0.7,5.1,0.6c0.2,0.1,0.4,0.3,0.4,0.5
		c1.6,1.1,3.7-0.3,5.2,1.2c0.1,0.3,0.1,0.5-0.1,0.8c-0.1,0.5-0.2,1.1-0.2,1.6c-0.5,0.2-1,0-1.5,0C67.9,84.4,67.3,83.2,66.3,83.5z"/>
	<path class="st66" d="M61.1,68.1c-0.1,0.8-0.4,1.5-1.4,1c-0.2-0.3-0.3-0.6-0.5-1c-0.9-0.6-1-1.5-0.7-2.4c2.2-0.8,4.4-1.4,6.5,0.1
		c-0.7,0.6-1.6,0.7-2.4,0.6C60.9,66.1,61.2,67.2,61.1,68.1z"/>
	<path class="st75" d="M63.9,74.1c0.4-0.6,0.7-1.1,1.1-1.7c0.5,0,1,0,1.6,0.1c0.1,0.3,0,0.7,0.3,1c2.3,0.9,4.9-0.1,7.2,0.7
		c0.2,0.2,1.1-0.3,0.6,0.6c-3.6,0.4-7.1,0.4-10.7,0c-0.2-0.1-0.3-0.3-0.2-0.4C63.8,74.1,63.8,74.1,63.9,74.1z"/>
	<path class="st49" d="M61.1,68.1c0.1-0.9-0.7-1.4-1.1-2.4c1.8,0.1,3.4,0.2,5,0.2c-0.1,0.1-0.1,0.2,0,0.4c0.1,0.9-0.6,1.3-1.1,1.8
		C63,67.6,62.1,67.4,61.1,68.1z"/>
	<path class="st71" d="M65.1,80.4L65,80.3c0,0,0-0.1,0-0.1c0.2,0,0.5,0,0.7-0.1c0.8,0.3,1.6-0.2,2.4-0.1c1.5,0.7,3.7-1.4,4.7,1.2
		c-2.5,0.8-5,0.2-7.5,0.1C65,81.3,64.9,80.8,65.1,80.4z"/>
	<path class="st55" d="M64,68.1c-0.3-1,0.2-1.5,1.1-1.8l0.1,0.1c1.9,0.8,3.8,0.5,5.8,0.6c1.2,0.1,2.6-0.3,3.7,0.6c0,0.2,0,0.4,0,0.7
		C71.1,68.2,67.6,68.2,64,68.1z"/>
	<path class="st76" d="M59.9,72.4c0.5,1.3,2.1,2.5,0.5,4.1c-0.3,0.2-0.5,0.1-0.6-0.2c-0.2-0.3-0.4-0.5-0.6-0.8
		c-0.5-0.8-1.2-1.6-0.5-2.7C59.1,72.7,59.5,72.5,59.9,72.4z"/>
	<path class="st24" d="M65.1,80.4c1.2,1.8,3,0.5,4.5,0.8c1,0.2,2.1,0,3.2,0c0.2,0.2,0.4,0.5,0.5,0.7c-1,0.2-2,0.3-2.9-0.1
		c-1.9,0-3.7-0.1-5.6-0.1c-0.5,0-1,0-0.9-0.8C64.1,80.4,64.7,80.5,65.1,80.4z"/>
	<path class="st58" d="M74.6,67.5c-2.4,0-4.9,0-7.3,0c-0.9,0-2.1,0.4-2.2-1.2c0.2-0.1,0.4-0.1,0.5,0c0.9,0.3,1.9,0,2.8,0.3
		c2,0.1,4-0.3,6,0.2C74.6,67.1,74.6,67.3,74.6,67.5z"/>
	<path class="st60" d="M59.3,82.4c-1.4-0.2-2.4-0.9-2.4-2.4c0-0.9,1-0.5,1.7-0.6C59.9,80.2,60.1,81.2,59.3,82.4L59.3,82.4z"/>
	<path class="st77" d="M59.8,76.3c0.2,0.1,0.4,0.1,0.6,0.2c0,0.5,0.2,1,0.7,1.2c-1.4,0.9-2.9,0.7-4.4,0.6
		C56.9,76,59.3,77.9,59.8,76.3z"/>
	<path class="st78" d="M74,74.1c-2.7,0-5.5,0-8.2-0.1c-0.1,0-0.2-0.1-0.2-0.1c0-0.1,0.1-0.3,0.1-0.4c0.8-0.6,1.7-0.5,2.5,0
		C70.1,73.8,72.2,72.8,74,74.1z"/>
	<path class="st79" d="M58.7,72.9c0.1,0.9,0.8,1.7,0.5,2.7c-0.6-0.4-1.2-0.7-1.7-1.1c-0.4-0.3-1-0.8-0.7-1.4
		C57.4,72.3,58.1,72.5,58.7,72.9z"/>
	<path class="st80" d="M59.2,82.5c-0.1-1-0.1-2.1-0.7-3c0.5,0,0.9,0,1.4,0c0.3,0.9,1.5,1.4,1,2.5C60.6,82.9,59.8,82.4,59.2,82.5z"/>
	<path class="st81" d="M58.1,84.8c0.2,0.2,0.9,0.6,0.9,0.8c-0.2,0.7-0.7,1.4-1.6,1.5c-0.6,0.1-0.8-0.5-0.8-1
		C56.7,85.2,57.1,84.8,58.1,84.8z"/>
	<path class="st64" d="M73.9,76.5c0.7-0.1,1.3,0.2,1.8,0.5c0.1,1.5-1,1.3-1.9,1.3c-0.3,0-0.8-0.2-0.9-0.4
		C72.5,77.1,73.8,77.2,73.9,76.5z"/>
	<path class="st82" d="M69.2,83.7c0.4,0.2,0.8,0.3,1.2,0.5c-0.8,1-2.1,0.9-3.2,1.1c-1.1,0.2-1-0.5-0.4-1.2
		C67.5,83.5,68.4,84.2,69.2,83.7z"/>
	<path class="st63" d="M74.6,66.9c-2.2,0-4.3,0-6.5,0c-0.2-0.2-0.1-0.4,0.1-0.6C70.3,66.7,72.5,65.7,74.6,66.9z"/>
	<path class="st49" d="M58.6,65.8c0.2,0.8,0.4,1.6,0.7,2.4c-1.5,0.3-2.2-0.7-2.3-1.9C56.9,65.5,57.9,65.7,58.6,65.8z"/>
	<path class="st6" d="M63.4,84.2c0.4,0.2,0.8,0.4,1.2,0.6c-1.3,0.7-2.6,1.9-4.2,0.6C61.1,84.2,62.4,84.4,63.4,84.2z"/>
	<path class="st81" d="M68.7,77.1c0.3,0.2,0.6,0.5,0.9,0.7c-1.3,0.5-2.6,1.3-3.8-0.1C66.5,76.5,67.6,76.4,68.7,77.1z"/>
	<path class="st83" d="M68.7,77.1c-0.9,0.4-2.1-0.4-2.9,0.6c-0.2-0.2-0.5-0.5-0.7-0.7C66.3,77,67.5,74.8,68.7,77.1z"/>
	<path class="st84" d="M63.4,84.2c-0.7,1.2-2.3,0.2-3,1.2c0-0.2,0-0.5,0-0.7C61.3,84,62.2,83.3,63.4,84.2z"/>
	<path class="st51" d="M68.1,80c-0.8,1-1.6,0.9-2.4,0.1C66.6,79.4,67.3,79.1,68.1,80z"/>
	<path class="st72" d="M68.2,66.3c0,0.2-0.1,0.4-0.1,0.6c-0.8-0.1-1.8,0.6-2.4-0.6C66.5,65.7,67.3,65.3,68.2,66.3z"/>
	<path class="st85" d="M69.2,83.7c-0.6,0.9-1.6,0.1-2.3,0.4c-0.2-0.2-0.4-0.4-0.5-0.5C67.3,82.4,68.2,84,69.2,83.7z"/>
	<path class="st86" d="M68.2,73.5c-0.8,0-1.7,0-2.5,0c0.3-0.4,0.6-0.7,0.8-1.1C67.3,72.5,68,72.6,68.2,73.5z"/>
	<path class="st87" d="M70.5,81.9c1,0,1.9,0,2.9,0.1c-0.8,0.8-1.9,0.3-2.8,0.6C70.6,82.3,70.5,82.1,70.5,81.9z"/>
	<path class="st88" d="M56.8,71.1c1,0,2,0,3.1,0C58.9,71.7,57.8,72.2,56.8,71.1z"/>
	<path class="st89" d="M47.9,86.7c-2-1.8-4.5-2.3-6.9-3c-4.9-1.5-8-4.7-8.1-10c0-1.5-1.9-3.4,1.1-4.3c0.7-0.2,0.5-1.7-0.3-2
		c-1.8-0.7-1,0.3-0.7,1.2c0.1,0.3-0.6,0.3-1,0.2c-0.8-0.2-1.2-0.8-1-1.6c0.2-1.3,1.2-1.6,2.4-1.6c4.6,0,9.3,0.2,13.9,0
		c2.7-0.1,3.4,1.6,3.3,3.5c-0.5,5.8,0.1,11.6-0.3,17.4c-1.9,0.7-1.4-0.8-1.4-1.6c-0.1-3.8,0-7.7,0-11.5c0-0.9,0.3-1.9-0.3-2.9
		c-0.1-0.3-0.3,0.4,0,0.1c0.1-0.1,0.2,0,0.2,0.2c0.2,4.9,0,9.8,0.1,14.7C48.8,86.2,48.7,86.7,47.9,86.7z"/>
	<path class="st90" d="M47.9,86.7c1.2-0.8,0.6-2,0.7-2.9c0.1-4.5,0-9,0-13.5c0.3,0,0.5,0,0.8,0c0,4.5,0,9,0,13.5
		c0,0.9-0.8,2.3,0.9,2.7C49.5,87.6,48.7,87.4,47.9,86.7z"/>
	<path class="st91" d="M74.6,42.1c0,5.3,0,10.6,0,15.9c-0.4,0.5-0.8,0.4-1.3,0.1c-0.2-0.3-0.2-0.6-0.2-0.9c0.6-3.9-0.8-7.8,0.1-11.7
		c0.4-1.8-0.7-3-2.6-2.6c-3.9,0.9-7.8-0.6-11.7,0.2c-0.3,0-0.6-0.1-0.9-0.3c-0.3-0.4-0.3-0.9-0.1-1.3c4.5,0,9,0,13.5,0
		C72.6,41.5,73.7,41.3,74.6,42.1z"/>
	<path class="st92" d="M73.5,58c0.4,0,0.7,0,1.1,0c0,0.2,0,0.4,0,0.6c-5.7,0-11.4,0-17.1,0c-0.1-3.1-0.1-6.3-0.2-9.4
		c0-2.5,0.1-5.1,0.1-7.6c0.2,0,0.3-0.1,0.5-0.1c0.1,0.4,0.1,0.8,0.2,1.2c1.2,1.8,0.5,3.8,0.7,5.6c0,0.8,0,1.7,0,2.5
		c-0.2,2,0.3,4.1-0.4,6.2c-0.1,0.3-0.2,0.3-0.1,0.3c0.1,0,0.2-0.1,0.3-0.1c0.3-0.1,0.6-0.1,0.9,0c1.9,0.3,3.8,0.1,5.7,0.2
		c0.8,0,1.7,0,2.5,0C69.7,57.4,71.7,56.8,73.5,58z"/>
	<path class="st93" d="M66.3,69.9c0.3-0.2,0.7-0.4,1-0.5c0.4-0.1,1-0.3,1.3,0.2c0.1,0.1,0,0.4,0,0.6c-0.4,0.6-0.8,0.3-1.2,0.1
		C67,70.1,66.6,69.9,66.3,69.9C66.2,69.8,66.3,69.9,66.3,69.9z"/>
	<path class="st94" d="M63.9,74.1c0,0.2,0,0.4,0,0.6c-0.6,0.2-1.2,0.7-1.9,0.4c-0.1,0-0.2-0.4-0.2-0.5
		C62.3,73.8,63.2,74.3,63.9,74.1z"/>
	<path class="st55" d="M45.5,81.2c0.2,0.5,1,0.9,0.6,1.5c-0.3,0.5-0.9,0.2-1.3,0.1c-4.8-0.9-8.6-5.3-9.1-10.5c0.4-0.4,1-0.4,1.3-0.1
		C39.9,75.1,43.3,77.6,45.5,81.2z"/>
	<path class="st95" d="M47.8,70.2c-0.2,1-0.1,2.4-1.7,2c-1.6-0.4-2.8-1.3-2.8-3.1c-0.1-1.7,1.3-1.9,2.4-2
		C47.7,67.1,47.5,68.9,47.8,70.2z"/>
	<path class="st96" d="M45.5,81.2c-2.5-2.4-5-4.9-7.6-7.3c-0.7-0.6-1.1-1.6-2.3-1.6c-1.1-0.7-0.2-1.5,0.2-1.9c0.6-0.6,1,0.2,1.4,0.6
		c0.9,1,2.2,1.7,2.5,3.2c1.1,0.6,1.8,1.7,2.9,2.3c0.9,1,1.9,2,2.8,2.9C46,80,46.5,80.6,45.5,81.2z"/>
	<path class="st97" d="M42.6,76.5c-1.6,0-2.1-1.4-2.9-2.3C41.4,74,41.9,75.4,42.6,76.5z"/>
	<path class="st98" d="M59.3,57.5c-0.2-0.1-0.3-0.1-0.5-0.1c-0.9-1.9-0.2-3.9-0.5-5.9c0.3-1.1,0.3-2.3,0-3.4
		c0.2-1.8-0.4-3.7,0.3-5.4c0.6-0.4,1.1-0.6,1.9-0.6c3.8,0,7.6,0.8,11.4,0c0.9-0.2,2.2,0.2,2,1.2c-1,4.8,1,9.6-0.5,14.3
		c-1.8,0.5-3.6,0.1-5.5,0.2c-1-0.2-1.9-0.4-2.9-0.2C63.2,57.9,61.2,57.9,59.3,57.5z"/>
	<path class="st63" d="M67.6,57.4c2,0,3.9,0.1,5.9,0.1c0,0.2,0,0.3,0,0.5c-2,0-4.1,0-6.1,0C67.3,57.7,67.4,57.5,67.6,57.4z"/>
	<path class="st99" d="M58.7,42.7c0,2,0,3.9,0,5.9c-0.2,0.2-0.3,0.2-0.5,0.1c0-2,0-4,0-6C58.3,42.7,58.5,42.7,58.7,42.7z"/>
	<path class="st100" d="M58.8,51.1c-0.4,2.1-0.3,4.2,0,6.4c-0.6,0.6-0.8,0.2-0.8-0.4c0-2,0-4.1,0.1-6.1
		C58.4,50.7,58.6,50.8,58.8,51.1z"/>
	<path class="st101" d="M59.3,57.5c2-0.2,4,0.4,5.9-0.5c0.3,0.3,0.3,0.6,0,1C63.2,57.9,61.2,58.6,59.3,57.5z"/>
	<path class="st102" d="M58.8,51.1c-0.3,0-0.5-0.1-0.8-0.1c0-0.8,0-1.6,0.1-2.3c0.2,0,0.4,0,0.5-0.1C59.6,49.3,59.6,50.2,58.8,51.1z
		"/>
	<path class="st103" d="M65.2,58c0-0.3,0-0.6,0-1c0.8,0,1.7-0.5,2.4,0.4c-0.1,0.2-0.1,0.4-0.2,0.6C66.7,58,66,58,65.2,58z"/>
	<path class="st74" d="M70.5,52.1c-0.7,1.3,0,1.6,1.1,1.9c1.1,0.3,0.6,1.6,0.5,2.3c-0.2,0.9-1.1,0.5-1.7,0.5c-1.4,0-0.5-0.9-0.6-1.2
		c-0.8-1.7-2.2-3-4.4-2.8c-0.6,0.4-0.8,1.9-1.9,0.6c-0.4-0.6-0.7-1.2-1.1-1.7c0.7-1.1,1.6-0.7,2.2-0.5c-1-0.7-2.7,0-4-0.9
		c0-1.1,0.6-1.5,1.6-1.6c0.9,0.1,1.7,0.4,2.4-0.5c0.2-0.3,0.5-0.6,0.8-0.8l-0.1-0.1c0.4-0.5,0.3-1.1,0.3-1.8c0.4-2,2-1.4,3.2-1.4
		c1.6,0,0.7,1.4,1.1,2.2c0.2,0.4-0.1,1.1,0.4,1.6c-0.2,0.4-0.5,0.4-0.8,0.5l0.1,0.2C67.6,50.5,69.6,51.1,70.5,52.1z"/>
	<path class="st104" d="M63.4,53.4c0.9,0.5,1.1-0.8,1.9-0.6c0.3,0.6,0.5,1.2,0.8,1.8c-0.9,0.5-1.9,0.3-2.8,0.2
		c-0.8,0-2.2,0.5-2.1-0.6C61.1,52.8,62.5,53.4,63.4,53.4z"/>
	<path class="st105" d="M70.5,52.1c-1.7-0.1-2.6-1.2-2.9-2.7c-0.1-0.6,0.7-1.4,1.7-0.8C68.8,50.1,70.6,50.8,70.5,52.1z"/>
	<path class="st106" d="M62.8,48c-0.4-0.4-0.8-0.8-1.2-1.3c-0.4-0.5-1.2-0.8-0.8-1.6c0.1-0.3,0.6-0.6,0.9-0.5
		c0.8,0.1,1.1,0.6,1.2,1.4c0.1,0.4,0.4,0.9,0.6,1.3c0.2,0.2,0.2,0.5,0.1,0.7C63.3,48.2,63,48.2,62.8,48z"/>
	<path class="st107" d="M60.5,50.3c1.6,0.3,3.4-0.3,5,1c-1,0.1-2.1,0.3-3.1,0.4C61.7,51.2,61.1,50.8,60.5,50.3z"/>
	<path class="st108" d="M69.3,48.4c0.3-0.2,0.6-0.3,0.8-0.5c0.5-0.6,1-1.2,1.6-2.1C72.1,48.7,72.1,48.7,69.3,48.4z"/>
	<path class="st1" d="M62.8,48c0.2,0,0.4,0,0.6,0.1c0.7-0.1,1.3-0.1,1.7,0.6c-1,1.4-2,1.2-3.1,0C62.3,48.5,62.5,48.2,62.8,48z"/>
	<path class="st109" d="M65.4,45.6c1.8,0.9,0.5,1.3-0.3,1.8C64.8,46.7,64.2,46,65.4,45.6z"/>
	<path class="st110" d="M65.1,48.7c-0.5-0.3-1.3,0-1.7-0.6c0-0.3,0.1-0.5,0.1-0.8c0.6,0,1.1,0.1,1.7,0.1
		C65.1,47.8,65.1,48.3,65.1,48.7z"/>
</g>
</svg>
